<?xml version="1.0" encoding="UTF-8"?>
<svg id="Layer_2" data-name="Layer 2" xmlns="http://www.w3.org/2000/svg" width="552.83" height="879.87" viewBox="0 0 552.83 879.87">
  <g id="Layer_1-2" data-name="Layer 1">
    <g>
      <path d="M31.04,2.55c.82,19.04,2.97,38.15,6.96,56.8,1.97,9.2,4.31,18.32,7.03,27.33s5.48,17.57,9.12,25.98c2.98,6.88,7.2,13.75,13.75,17.75,7.95,4.85,17.44,3.51,25.2-.99s13.84-11.01,19.56-17.5,11.01-13.72,15.79-21.07c9.4-14.47,17.1-29.95,24.56-45.48.92-1.92,1.84-3.84,2.85-5.72l-9.82-5.74c-3.76,7.28-7.04,14.82-10.59,22.21s-7.22,14.91-10.92,22.32c-7.36,14.76-14.95,29.4-22.77,43.92s-15.78,28.79-24,43c-8.26,14.28-16.74,28.43-25.44,42.44-4.04,6.52-8,13.13-12.41,19.41-.45.65-.92,1.29-1.39,1.93-.23.32-.47.63-.71.95s-.79.91.31-.39c-.17.2-.32.41-.49.62-1.06,1.32-2.16,2.61-3.33,3.84s-2.36,2.38-3.63,3.47c-.29.25-.58.5-.88.74-.15.12-.3.24-.45.36-.54.45.62-.46.58-.44-.76.38-1.47,1.07-2.2,1.54-1.41.9-2.88,1.7-4.41,2.37-1.4.61-2.62,2.51-3.01,3.91-.43,1.57-.24,3.65.66,5.05s2.24,2.63,3.91,3.01c1.83.42,3.34.09,5.05-.66,13.97-6.12,21.96-20.31,29.61-32.71,8.75-14.17,17.28-28.47,25.59-42.9s16.31-28.86,24.13-43.48c7.85-14.69,15.48-29.5,22.87-44.42,7.39-14.93,14.56-29.97,21.48-45.12,1-2.18,1.93-4.37,2.82-6.6,1.11-2.77-1.21-6.36-3.97-6.99-1.45-.33-3.09-.26-4.38.57s-2.01,1.95-2.61,3.4c-.19.46-.37.91-.57,1.37-.32.73.43-.87.05-.17-.1.19-.18.39-.27.58-.45.97-.91,1.93-1.36,2.9-.88,1.87-1.77,3.74-2.66,5.61-1.81,3.8-3.65,7.6-5.54,11.37-3.73,7.46-7.64,14.83-11.91,22s-8.62,14.02-13.73,20.42c.65-.82-.11.13-.34.43-.31.39-.61.77-.92,1.16-.37.46-.73.91-1.09,1.4.04-.05.55-.68.17-.23s-.71.88-1.07,1.32c-1.3,1.58-2.63,3.14-4,4.67-2.76,3.09-5.62,6.13-8.72,8.87-.74.65-1.5,1.27-2.25,1.89-.43.36.11-.08.17-.13-.23.17-.45.34-.68.5-.45.33-.91.65-1.37.96-.8.54-1.63,1.05-2.48,1.52-.42.23-.84.46-1.27.67-.18.09-.37.18-.55.27,0,0-1.14.48-.53.24s-.22.08-.36.13c-.19.07-.38.14-.57.2-.44.15-.89.28-1.33.41s-.9.23-1.35.32c-.26.05-.52.09-.78.14.4-.07.63-.06.09-.03-.93.06-1.85.06-2.78.02s-.15,0,.05.04c-.19-.03-.38-.06-.58-.1-.51-.09-1.01-.21-1.51-.35-.33-.09-.65-.19-.97-.3-.09-.03-.54-.14-.63-.23.06.05.98.46.19.08-.75-.36-1.48-.75-2.19-1.19-.33-.21-.64-.43-.96-.65-.09-.06-.55-.4-.07-.04.5.38-.07-.07-.19-.17-.65-.54-1.27-1.12-1.86-1.73s-1.1-1.18-1.61-1.8c-.15-.18-.29-.36-.44-.54.03.03.46.63.17.21-.27-.39-.56-.76-.82-1.15-.98-1.43-1.88-2.93-2.7-4.46s-1.63-3.22-2.36-4.87c-.14-.33-.28-.65-.42-.98.4.93-.17-.42-.24-.6-.43-1.05-.85-2.11-1.26-3.17-1.66-4.24-3.23-8.51-4.72-12.81-3-8.67-5.65-17.46-7.95-26.35-4.54-17.57-7.98-35.46-9.69-53.53-.21-2.27-.4-4.54-.57-6.81-.1-1.37-1.1-2.55-2.55-2.55-1.33,0-2.61,1.17-2.55,2.55h0Z" fill="#fff"/>
      <g>
        <path d="M126.16,195.22c1.7,17.47,4.01,34.88,6.92,52.19s6.47,34.36,10.5,51.38c1.12,4.7,2.22,9.41,3.4,14.1s2.75,9.64,3.56,14.55c.37,2.23,2.97,3.54,5,3.26,2.34-.31,3.77-2.18,3.95-4.47.28-3.59-.2-7.34-.31-10.95s-.17-7.02-.14-10.53.16-7.3.43-10.94c.12-1.66.28-3.32.47-4.97.05-.45.11-.9.16-1.35.18-1.48-.15.95.07-.52.14-.89.27-1.79.42-2.68.61-3.55,1.41-7.08,2.45-10.53.48-1.59,1.01-3.16,1.59-4.72.15-.41.32-.82.47-1.23.48-1.27-.44.85.16-.37.36-.74.72-1.48,1.16-2.18.09-.15.9-1.17.2-.35.27-.31.57-.59.84-.89.79-.88-.72.33.28-.23.34-.2.68-.4,1.03-.59.78-.43.11-.05-.07.02.38-.13.75-.26,1.14-.36s.78-.17,1.17-.26c.56-.09.53-.09-.09,0,.27-.03.54-.05.8-.07,1.38-.09,2.75,0,4.13.11,1.22.1-1.08-.21.12.02.35.07.7.12,1.04.19.69.14,1.37.31,2.05.51s1.34.42,2,.66c.23.09,1.37.46.14.03.33.11.65.29.96.43,1.28.61,2.52,1.3,3.7,2.07.55.36,1.09.73,1.62,1.11.23.17.93.66.02,0,.29.21.57.45.84.68,1.12.93,2.2,1.92,3.22,2.97s2.02,2.17,2.95,3.31c.15.18.34.38.47.58-.66-1.03,0,.01.14.19.52.7,1.02,1.41,1.51,2.14,1.6,2.38,3.01,4.88,4.24,7.46.32.67.62,1.34.92,2.02.51,1.15-.38-1,.07.17.13.33.26.66.39,1,.52,1.36.98,2.74,1.37,4.14.37,1.3.68,2.61.93,3.94.07.36.13.72.19,1.09.05.28.35,1.46.03.13.16.68.16,1.47.21,2.17.1,1.43.11,2.86,0,4.29-.02.23-.04.47-.06.7l-.04.35c-.07.56-.05.46.05-.29.15.59-.32,1.78-.47,2.37-.14.55-.3,1.1-.48,1.63-.07.19-.19.83-.35.95l.24-.57c-.09.21-.19.41-.28.61-.29.61-.62,1.2-.98,1.77-.15.24-.31.47-.47.71-.73,1.04.52-.53-.16.21-.57.62-1.12,1.23-1.76,1.79-.15.13-1.22.9-.26.23-.33.23-.67.47-1.01.68-.81.51-1.65.93-2.51,1.35-1.21.6.97-.32-.31.13-.52.18-1.03.38-1.56.55-1.71.55-3.46.94-5.22,1.25-.44.08-.88.14-1.32.21-1.11.18.73-.06-.49.07-1.07.12-2.14.23-3.22.3-2,.13-4,.17-6.01.09-1.08-.04-2.16-.11-3.23-.21-.31-.03-.61-.06-.92-.09-.31-.03-.61-.07-.92-.11.6.08.59.08-.01,0-4.12-.64-8.15-1.63-12.08-3.05-2.59-.94-5.86,1.05-6.46,3.67-.66,2.91.88,5.51,3.67,6.46,7.71,2.63,15.98,3.78,24.11,3.46,7.52-.3,16.11-1.49,22.38-5.98s9.3-10.92,10.02-18.37c.62-6.4-.77-13.12-3.04-19.09-4.6-12.07-12.99-24.3-25.09-29.79-6.3-2.86-14.34-4.56-21-1.88-4.05,1.63-7,4.56-8.81,8.54-1.67,3.68-2.94,7.55-3.95,11.46-3.95,15.3-3.74,31.29-3.02,46.95.1,2.17.17,4.31.55,6.45l8.32-3.51c-.72-1.63-1.24-3.47-1.88-5.53s-1.28-4.16-1.91-6.24c-1.23-4.09-2.43-8.18-3.59-12.29-2.34-8.28-4.4-16.66-6.37-25.04-3.95-16.84-7.32-33.81-10.09-50.88-1.55-9.55-2.91-19.13-4.08-28.73-.16-1.28-.99-2.39-2.39-2.39-1.2,0-2.52,1.1-2.39,2.39h0Z" fill="#fff"/>
        <path d="M237.56,273.62c2.19,11.15,4.7,22.82,11.37,32.28,1.07,1.51,2.86,2.31,4.65,1.52,1.67-.73,2.68-2.57,2.16-4.39-2.31-8.08-5-16.07-7.57-24.07s-5.14-16.2-7.61-24.33-4.83-16.13-7.16-24.22c-.26-.9-.53-1.79-.76-2.7-.13-.48-.22-.97-.32-1.46-.12-.55.04.12.03.2,0-.26.01-.57-.02-.83.01.09-.21.75-.04.25.06-.19.09-.39.16-.58-.02.05-.23.69-.04.23s-.15.2-.19.26c.04-.06.5-.54.05-.1-.39.39-.05.03.1-.05.37-.2,1.44-.67.5-.33,3.57-1.3,7.32-2.15,11.07-2.73.23-.03.46-.07.69-.1-.71.1-.03,0,.32-.03.54-.06,1.07-.12,1.61-.17,1.07-.1,2.15-.17,3.23-.22,2.23-.09,4.47-.07,6.71.06,1.16.07,2.31.17,3.46.3.23.03.46.06.69.08.8.09-.74-.13.05.01.5.09,1,.15,1.5.24.43.08.84.22,1.26.31.54.12-.32-.13-.36-.15.7.3-.11-.11-.35-.42-.21-.28-.4-.61-.51-.94-.16-.54.09-1.04-.01-1.54,0,.04-.21,1.3-.16.9-.1.74-.01,1.4.12,2.13.6,3.22,4.42,4.02,6.93,2.82,3.07-1.47,3.52-6.07,1.94-8.75-1.41-2.38-3.92-3.63-6.58-4.05-4.63-.73-9.32-1.05-14.01-.83s-9.33.88-13.86,1.99-9.41,2.31-12.15,6.23c-3.07,4.4-.78,9.98.61,14.54s2.74,8.91,4.13,13.35c2.82,8.97,5.72,17.91,8.69,26.83,3.33,9.99,6.65,20.07,10.65,29.82l6.22-3.62c-3.33-3.72-5.86-8.37-7.69-13.26-1.93-5.16-3.3-10.51-4.65-15.85-.81-3.19-5.5-1.82-4.88,1.35h0Z" fill="#fff"/>
        <path d="M293.53,228.66c-6.83.54-12.99,3.68-17.95,8.35-5.37,5.06-8.76,11.83-11,18.77-1.15,3.58-1.99,7.26-2.68,10.96s-1.55,7.79-1.6,11.69c-.08,7.49,4.21,13.83,11.06,16.79,13.22,5.72,27.77.12,38.15-8.7,5.09-4.32,9.4-9.64,12.9-15.31,4.18-6.77,7.25-14.26,8.12-22.2s-1.22-15.09-6.14-20.97c-2.07-2.48-4.77-4.64-7.68-6.05-1.69-.82-3.5-1.59-5.38-1.85s-3.78-.11-5.67.3c-.32.07-.64.15-.95.25-.16.05-.32.09-.48.15.09-.03-1.56.65-.82.34s-.86.37-.78.33c-.14.07-.28.17-.41.26-.33.21-.65.44-.96.68-1.26.96-2.06,2.34-1.62,3.97.41,1.49,1.85,2.58,3.39,2.58.66,0,1.32.05,1.98.08.51.03,1.18-.04,1.67.12-1.13-.37-.2,0,.09.06.32.07.64.15.95.24.64.18,1.27.41,1.91.58.28.08,1.83.35,1.92.62l-.58-.25c.21.09.42.19.62.28.21.1.41.2.61.31.61.32,1.2.68,1.78,1.07.27.18.63.37.85.61-.85-.92-.18-.12.06.09.53.46,1.04.95,1.52,1.46.34.36.74,1.07,1.16,1.33l-.36-.46c.14.19.28.38.41.57.2.29.4.59.58.89.37.6.71,1.22,1.02,1.85l.15.32c.23.51.19.43-.09-.24.18.18.28.74.36.98.2.61.37,1.22.51,1.85.1.42.17.85.26,1.28.3,1.38-.06-1.04.06.37.07.86.14,1.71.15,2.58s-.02,1.72-.09,2.58c-.03.36-.08.72-.11,1.08-.07.85.23-1.2-.03.17-.32,1.73-.69,3.43-1.2,5.11-.26.85-.54,1.68-.85,2.51-.1.28-.21.55-.32.83-.05.12-.62,1.48-.17.44-.7,1.63-1.48,3.22-2.32,4.78-1.4,2.61-2.97,5.13-4.71,7.53-.22.31-.45.61-.68.92-.76,1.04.66-.8-.15.2-.4.5-.8.99-1.21,1.48-.98,1.17-2.01,2.3-3.08,3.38-.97.99-1.99,1.94-3.03,2.85-.57.49-1.15.97-1.74,1.44-.19.15-.65.62.11-.08-.36.33-.81.6-1.21.88-2.26,1.59-4.77,3.23-7.38,4.17,1.19-.43.02-.02-.19.06-.28.11-.57.21-.86.32-.63.22-1.27.43-1.91.62-1.29.38-2.94.97-4.29.94,1.26.02.11-.02-.18.01-.25.03-.49.05-.74.07-.72.06-1.44.09-2.17.1-.57,0-1.14,0-1.71-.04-.34-.02-.69-.06-1.03-.08-.54-.06-.46-.05.24.04-.23-.03-.46-.07-.68-.11-1.24-.22-2.47-.54-3.66-.97l-.32-.12c-.48-.19-.42-.16.17.08-.01-.04-.52-.24-.61-.29-.7-.34-1.38-.73-2.02-1.17l-.27-.19c-.4-.3-.36-.26.14.12-.13-.05-.42-.35-.5-.42-.37-.33-1.19-.92-1.35-1.4l.31.4c-.13-.17-.25-.35-.37-.53-.12-.18-.23-.37-.34-.56-.17-.29-.3-.58-.46-.87.56,1.05-.12-.4-.21-.69-.1-.35-.18-.71-.25-1.07-.04-.2-.13-1.12-.06-.34-.08-.88-.1-1.77-.07-2.65.06-1.78.29-3.55.52-5.31-.02.12.18-1.31.1-.75s.12-.88.11-.76c.13-.88.26-1.76.4-2.64.28-1.75.6-3.5.98-5.24s.84-3.59,1.36-5.35c.27-.91.57-1.82.89-2.72.15-.41.3-.82.46-1.23-.03.08.47-1.19.27-.7.69-1.68,1.53-3.32,2.46-4.88.45-.76.93-1.49,1.43-2.21.14-.21.29-.41.44-.61.27-.35.3-.4.11-.15.62-.8.77-1,.47-.6,4.01-5,8.85-8.53,15.26-9.49,1.43-.22,2.31-1.94,2.12-3.24s-1.41-2.68-2.9-2.56h0Z" fill="#fff"/>
        <path d="M329.71,156.23c.02,18.29.61,36.57,1.92,54.81,1.31,18.33,2.93,36.63,4.83,54.91,1.07,10.24,2.23,20.47,3.48,30.69.18,1.51.49,2.76,1.6,3.87.95.95,2.51,1.67,3.87,1.6,2.92-.13,5.54-2.41,5.48-5.48-.05-2.69-.74-5.49-1.14-8.16-.36-2.39-.71-4.78-1.06-7.17-.22-1.48-1.96-2.55-3.34-2.55s-3.14,1.06-3.34,2.55c-.32,2.39-.65,4.78-.99,7.17-.38,2.66-1.05,5.47-1.08,8.16l10.76-1.46c-.68-4.56-1.35-9.12-2-13.69-.31-2.2-.62-4.4-.92-6.61-.15-1.06-.29-2.12-.44-3.18-.08-.57-.15-1.14-.23-1.71-.08-.61,0,.04.02.14-.05-.41-.11-.82-.16-1.23-1.21-9.09-2.35-18.19-3.42-27.3-2.12-18.14-3.94-36.32-5.76-54.49-1.03-10.3-2.12-20.59-3.21-30.88-.14-1.31-1.02-2.44-2.44-2.44-1.32,0-2.44,1.12-2.44,2.44h0Z" fill="#fff"/>
        <path d="M391.89,186.83c-9.99,6.74-19.64,13.96-28.94,21.62-4.59,3.78-9.08,7.67-13.48,11.66s-8.73,7.91-12.71,12.2c-2.18,2.35-4.27,5.1-5.05,8.27s-.31,6.62,1.55,9.34c3.25,4.78,9.13,7.18,14.23,9.43,11.48,5.08,23.4,8.32,35.85,9.83,3.31.4,6.63.66,9.96.79s6.89.18,10.08-.9c3.53-1.19,6.77-3.47,8.34-6.96,1.88-4.18,1.47-9.4-2.95-11.78-2.86-1.55-7.05.34-6.84,3.93,0,.04-.03.5.01.57l.11-.78c-.09.32-.14.64-.16.97-.04.27-.17.85-.1,1.18.15.67.3-1.41.04-.37-.1.43-.2.84-.32,1.26-.25.87.11-.32.2-.43-.18.23-.34.64-.49.89-.45.8.16-.25.29-.33-.11.06-.36.38-.46.5-.61.74.22-.31.38-.24-.07-.03-.68.44-.79.5-.18.1-.91.58-.22.15.74-.46-.27.08-.44.13-.39.12-1.57.6-1.95.45.05.02,1.42-.12.29-.05-.27.02-.54.05-.81.06-.54.03-1.09.05-1.63.05-1.39.02-2.78-.02-4.17-.07-2.64-.09-5.29-.28-7.92-.55-.68-.07-1.35-.15-2.03-.23-.3-.04-.6-.08-.9-.11-.92-.11,1.35.2-.11-.02-1.35-.2-2.69-.41-4.04-.64-2.61-.46-5.2-1.01-7.77-1.64-5.21-1.28-10.36-2.86-15.36-4.79-.63-.24-1.27-.49-1.9-.75-.28-.11-.56-.23-.84-.34-.74-.3.71.31-.02,0-1.32-.57-2.64-1.16-3.94-1.77-.98-.46-1.96-.93-2.9-1.47-.42-.24-.83-.49-1.23-.77-.34-.23-.94-.36,0,.04-.24-.1-.48-.41-.67-.58-.21-.2-.4-.42-.61-.62-.53-.52.06.18.14.19-.06,0-.36-.59-.36-.58-.49-.77.13.12.07.24.01-.02-.17-.58-.21-.67-.37-1.07-.09.56,0-.06.02-.18-.06-.99-.04-.31s.07-.29.12-.49c0-.01.39-1.23.14-.53-.21.59.1-.19.17-.33.28-.55.6-1.07.95-1.58.16-.23.32-.45.48-.68-.51.7-.09.12.03-.02.45-.52.9-1.04,1.37-1.55,7.33-7.9,15.12-15.4,23.15-22.58,8.99-8.04,18.3-15.57,27.99-22.62,1.53-1.12,2.29-3.05,1.26-4.81-.91-1.56-3.23-2.33-4.81-1.26h0Z" fill="#fff"/>
        <path d="M419.39,233.01c7.37-4.39,15.08-9.07,20.55-15.82,2.74-3.38,5.13-7.24,6.21-11.5.95-3.77.93-7.69.17-11.48-1.43-7.12-6.16-14.01-13.23-16.38-9.6-3.21-18.88,3.43-24.41,10.72-5.6,7.4-8.03,16.66-8.59,25.81-.52,8.6.72,17.49,3.54,25.63,5.46,15.77,17.68,30.88,34.87,34.05,7.57,1.39,15.66.72,22.8-2.21,3.89-1.59,7.39-3.64,10.52-6.47.56-.51,1.08-1.05,1.58-1.61.27-.3.53-.61.78-.92.13-.16.25-.31.38-.47.71-.89,1.33-1.65.45-.61,1.47-1.74,2.75-4.03,3.45-6.19.65-2.01.58-3.98.05-6-.46-1.72-2.83-2.96-4.41-1.79-1.33.98-2.55,1.87-3.64,3.13-.13.15-.25.31-.37.46l-.76.99.4-.51c-.26.18-.45.56-.66.8-.52.6-1.07,1.18-1.64,1.74-.53.53-1.07,1.06-1.63,1.56-.27.23-.54.46-.81.68-.12.1-.25.18-.35.28,1.95-1.83-1.41,1.04-.15.12.84-.61-.36.27-.52.38-.29.21-.58.41-.87.6-.68.45-1.37.87-2.08,1.26-.63.35-1.27.67-1.91.99-.37.18-.74.36-1.11.53-.14.06-.29.12-.42.19-.63.31,1.3-.51.38-.16-1.46.55-2.93,1.06-4.45,1.44-.76.19-1.53.36-2.3.5-.36.07-.72.12-1.09.18-.94.16.55-.07.6-.08-.26.01-.52.06-.78.09-1.57.16-3.15.23-4.72.19-.79-.02-1.58-.07-2.36-.14-.37-.03-.73-.09-1.1-.12-.74-.07,1.34.21.61.08-.26-.05-.52-.08-.78-.12-1.55-.25-3.08-.61-4.58-1.08-.75-.23-1.47-.54-2.21-.79-.58-.19.7.31.65.28-.18-.09-.39-.17-.57-.25-.43-.19-.85-.4-1.28-.61-1.68-.84-3.29-1.81-4.83-2.89-.35-.24-.68-.49-1.02-.74-.86-.62.28.22.28.22-.01.01-.6-.49-.56-.45-.7-.57-1.38-1.17-2.04-1.78-1.37-1.28-2.65-2.64-3.85-4.08-.27-.33-.53-.66-.8-.99-.46-.57.63.85.19.25-.11-.15-.22-.29-.33-.44-.58-.79-1.13-1.59-1.67-2.41-1-1.54-1.92-3.14-2.77-4.77-.42-.82-.82-1.65-1.21-2.5-.18-.39-.33-.81-.52-1.19.68,1.33-.1-.28-.23-.61-.67-1.74-1.26-3.5-1.78-5.29s-.97-3.71-1.33-5.6c-.16-.85-.3-1.7-.43-2.55-.15-.94,0,.15.03.28-.05-.23-.06-.5-.09-.73-.06-.5-.11-.99-.16-1.49-.38-4-.4-8.03.03-12.02.02-.2.04-.39.07-.59.1-.95-.02,0-.03.16.03-.46.14-.91.21-1.36.17-1.03.38-2.06.62-3.08.46-1.96,1.06-3.88,1.77-5.76.07-.19.58-1.41.33-.85s.02-.04.06-.13c.11-.23.21-.47.32-.7.44-.93.92-1.84,1.44-2.73.46-.78.94-1.54,1.46-2.28.14-.21,1.04-1.38.43-.61.32-.41.66-.81,1-1.2.65-.75,1.34-1.46,2.08-2.13.34-.31.69-.61,1.05-.91.67-.55.18-.13.03-.03.27-.19.54-.38.82-.57.77-.51,1.6-.9,2.39-1.36.58-.33-.61.2.02-.02.24-.09.49-.18.73-.27.49-.16.99-.3,1.49-.42.25-.06.51-.1.76-.15.5-.1-.11.03-.18.03.49-.02.98-.06,1.47-.05.34,0,.68.06,1.02.06.57.01-.81-.22-.27-.03.21.07.48.09.69.14.32.08.63.16.94.26.13.04.26.09.39.13.78.24-.24-.1-.23-.11.29-.13,1.66.89,1.93,1.06.15.1.3.22.45.32,0,0-.61-.52-.28-.22.24.22.5.42.74.64.56.52,1.03,1.1,1.54,1.65-.69-.74.08.12.23.35.19.28.36.58.53.87s.33.6.49.9c.09.18.17.35.26.53.05.11.36.9.16.34-.18-.49.16.45.23.64.12.33.22.67.32,1,.23.77.42,1.56.56,2.36.08.42.13,1.1.06.28.03.4.09.81.11,1.21.05.81.06,1.62.02,2.43-.02.35-.05.71-.08,1.06-.01.15-.04.3-.05.45.08-.96.06-.41.02-.18-.16.79-.31,1.57-.54,2.34-.1.33-.22.66-.33.99-.3.89.18-.33-.16.42-.42.92-.87,1.81-1.38,2.68-.47.81-.99,1.59-1.54,2.35-.12.17-.83,1.1-.37.51-.35.44-.71.87-1.08,1.3-1.25,1.43-2.61,2.76-4.03,4.01-.72.63-1.47,1.24-2.22,1.84.53-.42-.39.3-.55.41-.47.35-.94.69-1.41,1.03-1.59,1.13-3.22,2.2-4.86,3.23s-3.29,2.02-4.95,3.01c-1.85,1.1-2.69,3.76-1.48,5.64s3.66,2.66,5.64,1.48h0Z" fill="#fff"/>
      </g>
      <path d="M106.04,392.02c-7.23,30.67-13.37,61.6-19.85,92.44l-2.76,13.15c-.44,2.11-.91,4.22-1.3,6.34-.48,2.57-1.48,5.42-.48,7.95.95,2.38,3.93,3.67,5.95,1.57.98-1.01,1.59-1.97,1.94-3.35.24-.96.4-1.96.59-2.93.4-1.96.76-3.91,1.11-5.88l2.12-11.78c1.39-7.69,2.77-15.38,4.16-23.08,2.8-15.55,5.6-31.1,8.39-46.64,1.59-8.86,3-17.73,4.38-26.62.18-1.17-.3-2.37-1.54-2.71-1.12-.31-2.44.38-2.71,1.54h0Z" fill="#fff"/>
      <path d="M54.05,451.43c14.87.46,29.73,1.16,44.6,1.63l22.18.69,10.96.34c3.67.11,7.42.46,11.09.32,2.35-.09,4.68-.72,6.39-2.43s2.4-4.28,2.23-6.74c-.3-4.33-.93-8.58-1.71-12.85-.3-1.63-2.18-2.65-3.7-2.42-1.8.27-2.7,1.6-2.93,3.31-.46,3.48-.78,6.89-.95,10.39-.02.46-.06.91-.07,1.37-.01.91.05.04.05-.11,0,.17-.13.99-.27,1.09l.22-.47c.14-.22.32-.39.55-.51l.21-.14c-.46.26-.4.24.17-.04-.99.43.64.03,0,.06-.77.04-1.53.05-2.3.06-6.98.05-13.95.1-20.93.14-14.04.1-28.08.15-42.11.42-7.89.15-15.78.21-23.67.26-3.63.02-3.62,5.51,0,5.62h0Z" fill="#fff"/>
      <path d="M163.59,369.35c-2.38,17.39-4.38,34.84-5.94,52.33-1.54,17.26-2.95,34.51-3.83,51.82-.5,9.8-.86,19.6-1.17,29.41-.08,2.59,2.04,4.77,4.51,5.11,2.72.36,4.76-1.27,5.7-3.72,3.9-10.09,7.47-20.31,11.17-30.47,1.88-5.16,3.75-10.32,5.63-15.48.86-2.38,1.72-4.76,2.6-7.14.37-1.01.75-2.02,1.16-3.02.05-.11.25-.73.31-.75-.03,0-.53,1.2-.07.18.25-.55.49-1.1.75-1.65.43-.9.89-1.79,1.4-2.66.27-.46.54-.91.83-1.36.14-.22.29-.44.44-.66.03-.04.74-1.1.27-.41-.42.62.06-.08.19-.22.17-.2.34-.4.51-.6.35-.4.72-.78,1.1-1.15s.75-.67,1.13-1.01c.43-.39-.42.32-.42.32.26-.09.63-.44.87-.59.4-.25.8-.48,1.22-.69.17-.09.5-.19.63-.31-.09.08-1.23.46-.33.14s1.76-.59,2.69-.77c.14-.03.54-.04.68-.12-.73.37-1.02.11-.43.08.46-.02.91-.05,1.36-.04.23,0,.45.02.67.03.63.03.2.29-.46-.08.36.2,1.04.21,1.46.33.21.06.42.16.63.21.67.17-.99-.54-.4-.17.32.21.69.35,1.01.56.05.03.45.37.55.38-.56-.05-.8-.69-.33-.21.17.17.35.33.51.51.13.14.25.28.37.43.26.31.16.19-.29-.37.19.02.57.92.68,1.12.12.22.22.45.34.67.35.65-.34-.98-.12-.27.33,1.04.67,2.06.89,3.14.1.51.2,1.02.28,1.54.04.25.06.52.11.77-.03-.14-.15-1.3-.05-.31.12,1.17.25,2.35.37,3.52.28,2.73.57,5.47.85,8.2.63,6.05,1.26,12.1,1.88,18.15.31,2.98.62,5.97.93,8.95.16,1.57.33,3.15.49,4.72.19,1.87.23,3.89.72,5.7.61,2.26,2.94,4.18,5.35,4.07s4.82-1.63,5.35-4.07c.47-2.15.77-4.29,1.03-6.47.19-1.63-1.22-3.28-2.59-3.86-1.45-.61-3.53-.41-4.61.87-1.41,1.67-2.73,3.37-3.97,5.18l10.34,2.8c.07-1.39-.23-2.84-.38-4.23-.16-1.49-.32-2.98-.48-4.47-.31-2.9-.63-5.8-.94-8.7-.62-5.72-1.24-11.43-1.86-17.15s-1-11.39-1.97-17c-.91-5.26-3.38-10.31-8.06-13.17-4.27-2.61-9.84-2.85-14.53-1.36-5.26,1.67-9.27,5.13-12.42,9.58-2.85,4.04-4.61,8.8-6.28,13.42-1.92,5.32-3.82,10.65-5.73,15.98-4.38,12.21-8.92,24.37-13.05,36.67l10.21,1.38c-.24-17.3.1-34.6.8-51.88s1.9-34.52,3.59-51.74c.95-9.67,2.03-19.33,3.23-28.97.22-1.76-1.54-3.36-3.13-3.54s-3.71.79-3.96,2.59h0Z" fill="#fff"/>
      <path d="M248.44,456.38c7.4-3.15,14.76-6.62,20.84-11.99s10.85-13.72,9.47-22.28c-.75-4.65-3.88-8.53-8.34-10.09-4.72-1.65-10.02-.02-14.21,2.28-3.87,2.12-7.42,5.1-10.58,8.17s-5.96,6.5-8.41,10.14c-5.07,7.51-8.58,16.29-9.75,25.28-.69,5.31.21,10.73,3.22,15.23,2.81,4.21,6.62,7.46,10.62,10.5,14.29,10.89,33,15.85,50.84,14.91,18.75-.99,37.61-7.85,52.06-19.93,1.1-.92,1.96-2.01,2.77-3.19.11-.17.45-.77-.06.01.29-.45.66-.85.98-1.28s.61-.85.92-1.29c1.03-1.46.63-3.93-.66-5.11-1.49-1.37-3.32-1.46-5.11-.66-.44.2-.89.4-1.34.59-.14.06-.96.38-.37.16.54-.2-.07.02-.15.05-1.35.51-2.63,1.05-3.85,1.82-1.71,1.08-3.45,2.13-5.18,3.19-3.53,2.15-7.21,4.04-10.94,5.84-.88.42-1.77.84-2.67,1.23-.22.1-1.7.73-.81.36.79-.33.11-.05-.04.01-.32.13-.65.26-.97.39-1.88.75-3.79,1.44-5.72,2.06-3.92,1.27-7.92,2.26-11.98,2.95-.48.08-.96.16-1.45.23-.27.04-.57.06-.83.12,0,0,1.26-.16.57-.08-1.04.13-2.08.25-3.13.34-2.04.18-4.08.28-6.12.3s-3.95-.04-5.92-.17c-.95-.06-1.9-.14-2.85-.24-.47-.05-.95-.11-1.42-.16-1.06-.12.22.03.36.05-.27-.05-.54-.08-.81-.12-3.97-.59-7.89-1.5-11.72-2.71-1.94-.62-3.84-1.33-5.73-2.09-.61-.24.45.19.46.19-.24-.07-.52-.23-.75-.33-.43-.19-.87-.39-1.3-.59-.92-.43-1.84-.87-2.75-1.33-1.75-.89-3.46-1.86-5.13-2.9-.86-.54-1.71-1.09-2.55-1.67-.33-.23-.67-.46-1-.7-.22-.16-.44-.32-.66-.48-.14-.1-1.05-.83-.41-.3.56.46-.51-.4-.72-.57-.37-.3-.73-.6-1.09-.91-.77-.66-1.53-1.35-2.25-2.07-.21-.21-2-1.88-1.9-2.11,0-.01.77,1.09.12.14-.11-.17-.23-.33-.34-.5-.33-.5-.64-1.01-.92-1.55-.09-.18-.17-.36-.27-.54-.32-.56.19.37.14.37-.1.01-.52-1.55-.54-1.64-.06-.22-.11-.44-.16-.67-.04-.16-.22-1.12-.1-.42.11.64,0-.1-.02-.2-.03-.38-.06-.76-.07-1.15-.03-1.08.02-2.16.13-3.23.02-.23.05-.46.08-.69-.12,1.04-.03.22.01.01.11-.58.2-1.17.32-1.75.39-1.92.88-3.83,1.46-5.7.27-.87.57-1.74.88-2.6.16-.43.32-.86.49-1.28.07-.18.15-.36.22-.55.47-1.18-.28.61.03-.07,1.61-3.53,3.42-6.91,5.63-10.09.26-.38.53-.75.8-1.12.19-.27.89-1.18.31-.44.6-.78,1.23-1.53,1.87-2.28,1.24-1.44,2.55-2.81,3.92-4.12.66-.63,1.34-1.24,2.03-1.84.4-.34.8-.68,1.2-1.01.15-.12.3-.25.46-.37.3-.24.67-.51.16-.13,1.58-1.18,3.22-2.1,4.95-3.06.61-.34-.6.21.05-.03.19-.07.37-.15.56-.21.44-.15.88-.29,1.33-.41s.88-.21,1.33-.28c-.98.14.44.05.71.04.8-.02.14-.02-.06-.05.24.04.49.09.72.15.17.04.36.13.53.15.6.1-.54-.34,0-.02.37.22.74.43,1.11.67-.75-.49.04.12.33.41.09.09.35.51.06.06-.33-.51.05.09.11.22.18.33.37.66.53,1-.37-.8-.05-.02.06.35.05.16.09.32.13.48,0,.03.26,1.08.11.41-.13-.58.05.58.05.78.02.4.02.8,0,1.21s-.06.81-.09,1.21c.1-1.1-.12.46-.18.72-.19.79-.48,1.54-.74,2.31-.15.46.07-.15.09-.2-.09.22-.19.43-.29.65-.2.42-.41.84-.64,1.25-.39.72-.82,1.41-1.28,2.08-.13.19-.74,1.04-.49.7.32-.44-.12.15-.21.25-.15.18-.3.36-.45.54-1.15,1.34-2.42,2.57-3.77,3.71-.32.27-.65.53-.97.79.61-.5-.23.17-.44.32-.73.54-1.49,1.05-2.25,1.55-3.05,1.98-6.29,3.66-9.58,5.21-1.6.75-3.22,1.47-4.84,2.18-1.98.87-2.59,3.92-1.48,5.64,1.34,2.07,3.51,2.39,5.64,1.48h0Z" fill="#fff"/>
      <path d="M.05,621.83c3.14,19.87,6.81,39.62,10.86,59.33,1.15,5.59,2.32,11.17,3.51,16.75.4,1.88,2.5,3.44,4.41,3.36,2.15-.1,3.67-1.39,4.41-3.36,5.8-15.51,11.4-31.09,16.98-46.68l-9.43,1.23c5.62,8.28,7.79,18.35,14.32,26.1,3.15,3.74,7.25,6.73,11.89,8.32s9.9,1.12,14.42-.97c7.54-3.49,11.66-11.87,13.91-19.43,1.23-4.14,1.9-8.4,2.56-12.66.9-5.83,1.68-11.68,2.31-17.54s1.18-12.25,1.55-18.38c.19-3.11.34-6.22.45-9.34.13-3.43.57-7.13-.06-10.51l-9.67,4.08c.61,1.43,1.29,2.77,2.06,4.12,1.54,2.71,5.31,1.86,6.25-.82.54-1.51.99-3,1.36-4.56.63-2.69-.84-5.86-3.7-6.51-2.67-.61-5.88.8-6.51,3.7s-.37,5.91-.47,8.79c-.09,2.62-.21,5.25-.35,7.87-.29,5.24-.68,10.48-1.17,15.7s-1.11,10.44-1.79,15.64c0,.07-.12.89-.03.25.09-.69-.05.34-.07.5-.09.65-.18,1.3-.27,1.95-.2,1.38-.4,2.76-.61,4.14-.31,2-.61,4-1.02,5.98-.36,1.76-.8,3.51-1.32,5.24-.25.81-.51,1.62-.8,2.41-.15.42-.32.84-.48,1.26s-.45.57.16-.35c-.15.22-.23.52-.34.76-.71,1.57-1.54,3.09-2.52,4.51-.12.17-.25.33-.36.51-.29.47.38-.47.36-.46-.29.26-.53.65-.79.94-.57.64-1.19,1.23-1.84,1.79-.86.75.77-.5.01-.01-.33.21-.66.44-1,.64s-.7.37-1.05.56c-.44.23-.5-.04.44-.18-.18.03-.39.15-.57.21-.39.13-.78.25-1.17.35-.28.07-1.01.09-1.23.25.12-.09,1.33-.09.34-.06-.25,0-.5.03-.74.04-.49.01-.98-.02-1.47-.05-.97-.06.21-.02.32.05-.13-.08-.54-.1-.72-.14-.48-.11-.95-.23-1.41-.38-.23-.08-.46-.16-.69-.24-.6-.21-.09-.29.24.11-.24-.29-1-.48-1.33-.67-.24-.13-2.47-1.69-2.54-1.65.05-.03.97.81.16.11-.15-.13-.29-.25-.44-.38-.44-.38-.86-.78-1.27-1.19-.8-.8-1.7-1.66-2.32-2.61.08.13.66.91.12.13-.18-.26-.37-.52-.56-.79-.32-.47-.63-.96-.93-1.45-1.36-2.23-2.5-4.59-3.58-6.97-2.17-4.75-4.16-9.6-7.13-13.92-2.56-3.73-7.94-3.09-9.43,1.23-5.37,15.63-10.71,31.28-15.86,46.99h8.82c-5.01-19.42-9.53-38.94-14.26-58.42-1.34-5.53-2.66-11.06-3.96-16.6-.32-1.36-1.87-2.16-3.17-1.8-1.47.4-2.02,1.79-1.8,3.17H.05Z" fill="#fff"/>
      <path d="M132.53,621.19c-.57,10.55-.31,21.19.86,31.69.61,5.45,1.39,10.92,2.52,16.29.54,2.55,1.13,5.1,1.78,7.63.74,2.89,1.34,6.21,4.01,7.98,1.73,1.15,4.15,1.29,5.94.22,1.93-1.15,2.81-3.5,2.3-5.65-.33-1.38-1.11-2.63-2.34-3.4-1.68-1.04-4.22-.81-5.51.78s-1.61,3.55-.31,5.23,3.37,1.97,5.14,1.03l-.66.29h-2.15l-.76-.32-1.47-1.47c.23.3.14.32-.15-.72-.17-.63-.29-.98-.1-1.6.36-1.18.92-.95,2.35-1.55,2.08-.87,1.8-1.08,3.33-.14-.56-.35-.02,0,.13.19-.05-.06-.37-.62-.06-.05.27.49.04.08,0-.06-.09-.3-.2-.6-.29-.9-.63-1.96-1.22-3.93-1.78-5.9-1.12-3.95-2.14-7.93-3.02-11.94-1.72-7.81-2.91-15.67-3.5-23.64-.35-4.65-.42-9.33-.36-13.99.02-1.6-1.37-2.95-2.95-2.95-1.67,0-2.87,1.35-2.95,2.95h0Z" fill="#fff"/>
      <path d="M144.39,565.63c-.06.47-.16.94-.1,1.42l.18,1.47c.02.13.03.25.05.38v.11c.02.74.2,1.42.57,2.06.09.18.19.36.29.54l.6,1.12c1.07,1.98,4.19,1.98,5.26,0l.58-1.08c.1-.19.21-.39.31-.58.3-.47.46-.97.48-1.52.03-.22.06-.43.09-.65.02-.13.03-.25.05-.38l.17-1.42c.06-.5-.03-.98-.1-1.47.02-.58-.1-1.12-.36-1.63-.17-.52-.46-.98-.87-1.36-.38-.41-.83-.7-1.36-.87-.5-.26-1.04-.39-1.63-.36-1.09.05-2.22.41-2.98,1.24l-.66.85c-.38.66-.57,1.37-.58,2.13h0Z" fill="#fff"/>
      <path d="M207.2,554.57c2.13,18.3,4.24,36.59,6.21,54.91s3.92,36.44,5.88,54.66c.55,5.11,1.1,10.22,1.59,15.33l.36,3.71c.05.53.11,1.05.12,1.58,0,.21-.02.41-.01.62.01.78-.01-.37.1-.54-.17.27-.24.91-.31,1.23-.13.56-.29,3.23-.12,1.16,0,.1-.46,2.2-.15.92-.02-.29.04-.56.2-.8.19-.39.22-.48.11-.27-.36.59.95-1.02,1.45-1.2.18-.07,1.28-.19.71-.22-2.88-.19-4.52,3.26-3.2,5.57s3.93,3.26,6.46,2.59c2.83-.75,4.83-3.09,5.56-5.85s.21-5.08-.18-7.74c-.35-2.37-.7-4.75-1.05-7.12-1.4-9.59-2.63-19.22-3.93-28.83-2.58-18.95-5.39-38.46-7.76-57.06-1.39-10.88-2.77-21.77-4.16-32.65-.26-2.04-1.63-4.04-3.94-3.94-1.93.09-4.19,1.75-3.94,3.94h0Z" fill="#fff"/>
      <path d="M184.96,632.83c27.84-3.83,55.55-8.63,83.03-14.53,1.83-.39,3.76-.76,5.37-1.79,2.61-1.67,4.15-4.88,3.31-7.95-.69-2.49-3-4.73-5.68-4.74-2.25-.01-4.24,1.41-4.92,3.55-.62,1.95,1.11,4.57,3.3,4.33-.39-.06-.76-.17-1.13-.31l-1.41-1.41c-.88-1.82-.1.17-.06.2-.49-.45.6-2.98.39-2.62.46-.8.57-.8.21-.43.91-.93.62-.48.17-.25-.97.5.12-.17.26-.06-.11-.08-1.59.44-1.81.49-2.95.71-5.91,1.4-8.86,2.08-5.99,1.38-12,2.71-18.01,4.02-12.02,2.61-24.08,5.03-36.17,7.26-6.77,1.25-13.55,2.44-20.34,3.56-2.3.38-3.8,3.35-3.11,5.48.82,2.54,3,3.45,5.48,3.11h0Z" fill="#fff"/>
      <path d="M323.32,583.42c-16.87,2.88-31.99,13.27-41.4,27.46-2.49,3.75-4.49,7.81-6.07,12.02-1.77,4.72-2.89,10.06-2.29,15.11.67,5.63,2.86,10.54,6.7,14.73,3.11,3.4,7.13,6.06,11.27,8.04,5.16,2.46,10.59,4.22,16.25,5.02,3.07.43,6.13.73,9.24.69s6.42-.2,9.39-1.18c2.77-.91,4.56-3.44,4.16-6.38-.37-2.77-2.8-5.12-5.71-5.04-2.26.06-4.49.42-6.75.53s-4.53.07-6.79-.13c-.51-.04-1.02-.1-1.53-.15-.22-.03-1.17-.13-.29-.03.83.09.08,0-.08-.02-1.15-.19-2.3-.4-3.45-.66-2.21-.5-4.38-1.14-6.51-1.93-.09-.03-1.41-.44-1.43-.56.01.1,1.02.46.19.08-.27-.12-.53-.24-.8-.36-.95-.44-1.89-.91-2.81-1.42-.79-.44-1.57-.91-2.33-1.41-.43-.28-.85-.59-1.28-.88-.32-.22-.64-.67.25.21-.18-.18-.41-.32-.6-.49-.74-.62-1.45-1.27-2.11-1.96-.31-.32-.61-.65-.9-.99-.06-.07-.45-.45-.48-.59.47.62.58.75.33.4-.08-.1-.15-.21-.22-.31-.55-.79-.98-1.63-1.44-2.47-.38-.7.24,0,.09.27.03-.06-.2-.53-.23-.6-.22-.6-.41-1.22-.56-1.84-.12-.48-.19-.98-.3-1.46-.18-.8.08,1.06.03.24-.01-.21-.04-.43-.06-.64-.09-1.14-.11-2.29-.05-3.44.03-.58.09-1.15.14-1.73.07-.82-.17-.02-.03.18-.05-.07.09-.56.11-.65.2-1.15.46-2.3.77-3.43.29-1.05.62-2.1.99-3.13.16-.45.33-.89.5-1.33.09-.23.18-.45.27-.68.24-.62-.45,1-.04.09.78-1.74,1.61-3.45,2.54-5.11s1.88-3.16,2.93-4.66c.28-.4.56-.8.85-1.19.26-.36.8-1.12.21-.3.57-.79,1.23-1.54,1.87-2.28,2.48-2.88,5.23-5.53,8.2-7.9.14-.11.29-.23.43-.34.43-.35-.62.46.09-.06.45-.33.89-.66,1.34-.98.85-.6,1.72-1.19,2.6-1.74,1.76-1.11,3.58-2.13,5.45-3.05.49-.24.99-.48,1.49-.71.17-.08.33-.15.5-.23.09-.04,1.21-.51.34-.16.97-.4,1.94-.77,2.92-1.12,2.03-.71,4.09-1.3,6.18-1.78s3.38-2.88,2.75-4.84c-.71-2.2-2.66-3.12-4.84-2.75h0Z" fill="#fff"/>
      <path d="M364.73,541.56c-1.17,15.37-1.95,30.75-2.81,46.13s-1.48,30.79-1.86,46.19c-.21,8.61-.34,17.22-.4,25.84-.02,2.84,2.18,5.22,4.94,5.59s5.68-1.29,6.25-4.08c2.2-10.75,4.95-21.48,8.25-31.95,1.66-5.29,3.49-10.52,5.47-15.7.98-2.55,1.99-5.09,3.04-7.61.07-.18.47-1.11.15-.37s.08-.19.16-.37c.28-.65.55-1.29.84-1.94.48-1.11.95-2.22,1.52-3.29.23-.42.46-.84.72-1.25.13-.2.26-.41.39-.61.09-.13.73-1.14.17-.26-.52.82.38-.39.57-.58.16-.16.52-.37.62-.57-.18.36-1.16.69-.28.27,1.22-.58-1.32.44.15-.06.67-.23.08.43-.66.08.06.03.63.02.64.02-.97.23-1.22-.24-.57-.01-1.41-.51-.75-.37-.43-.17-.03-.02.58.4.61.39-.71-.57-.83-.64-.36-.22l.27.26c.18.18.34.36.51.55.18.21.61,1.07.25.28-.34-.76-.05-.06.11.17s.34.46.51.69c.8,1.1,1.57,2.2,2.33,3.33,1.35,2.01,2.64,4.06,3.86,6.15,1.29,2.21,2.51,4.47,3.66,6.77.54,1.08,1.06,2.18,1.57,3.28.24.52.47,1.04.7,1.56.14.33.28.65.43.98.45,1.03-.29-.73-.01-.04,1.91,4.69,3.58,9.46,4.92,14.35.73,2.68,1.36,5.39,1.88,8.12.26,1.33.49,2.66.7,4,.11.69.27,1.42.31,2.11-.08-1.43-.09-.65-.04-.31.05.42.11.85.15,1.27.33,2.83.55,5.67.67,8.52.06,1.42.09,2.85.1,4.27,0,1.83.14,3.56.39,5.38l11.12-3.07c-.32-2.26-.79-4.5-1.23-6.74-.81-4.23-7.34-3.99-8.32,0-.55,2.24-1.14,4.48-1.58,6.74-.57,2.95.83,6.36,4.03,7.09,2.85.65,6.48-.86,7.09-4.03,1.06-5.52.38-11.55-.25-17.11s-1.62-11.35-2.99-16.92c-2.63-10.64-6.74-20.99-12.09-30.55-2.75-4.92-5.83-9.73-9.37-14.12-2.2-2.73-5.21-4.6-8.76-4.86-3.3-.24-6.27,1.23-8.68,3.38-4.28,3.81-6.2,10-8.31,15.12-2.24,5.41-4.3,10.9-6.18,16.44-2.11,6.21-4,12.49-5.66,18.84s-2.94,12.77-4.05,19.26l11.18,1.51c-.81-30.78-.81-61.62.71-92.38.43-8.6.93-17.2,1.5-25.79.15-2.23-2.07-4.36-4.27-4.27-2.46.11-4.08,1.88-4.27,4.27h0Z" fill="#fff"/>
      <path d="M442,545.26c-.05,3.09-.13,6.17-.14,9.26s.18,6.18.28,9.26c.04,1.44,1.24,2.83,2.77,2.77s2.72-1.21,2.77-2.77c.1-3.08.29-6.18.28-9.26s-.09-6.17-.14-9.26c-.02-1.52-1.32-2.98-2.91-2.91s-2.88,1.28-2.91,2.91h0Z" fill="#fff"/>
      <path d="M551.77,561.49c-14.47-8.81-31.62-11.97-48.34-9.56-7.03,1.01-14.21,3.28-19.52,8.22s-6.98,12.84-3.47,19.53,10.38,10.79,16.25,15.1c6.66,4.89,12.92,10.32,18.76,16.16,2.94,2.94,5.78,5.99,8.49,9.15s5.18,6.06,7.33,9.49c.94,1.49,1.97,3.34,2.54,4.78.35.88.65,1.78.89,2.7.28,1.06.37,1.55.42,2.37.03.45.04.9.02,1.35,0,.14-.1,1.25-.04.79-.12.85-.43,1.94-.71,2.56-.67,1.5-1.65,2.6-3.05,3.8-.37.31-1.03.75-1.7,1.15-.8.48-1.62.89-2.46,1.29-.64.3-.2.09-.06.04-.15.06-.31.12-.47.18-.36.14-.73.27-1.1.4-.79.27-1.6.49-2.41.68-.38.09-.76.17-1.14.24-.17.03-1.21.2-.82.15s-.69.07-.83.09c-.44.04-.89.07-1.33.09-1.57.07-3.13,0-4.68-.17-.75-.08-.12-.02.03,0-.17-.03-.33-.05-.5-.08-.39-.06-.77-.13-1.15-.21-.82-.17-1.64-.37-2.44-.6-.75-.22-1.5-.47-2.23-.74-.25-.09-1.17-.48-.45-.16-.41-.18-.82-.36-1.22-.56-1.45-.71-2.85-1.53-4.17-2.47-.18-.13-1.07-.84-.37-.26-.26-.21-.52-.42-.77-.64-.63-.54-1.24-1.11-1.82-1.71-.54-.56-1.06-1.14-1.55-1.75-.25-.3-.5-.6-.75-.9-.17-.19-.95-1.17-.41-.47-1.29-1.69-3.57-2.76-5.58-1.46-1.86,1.2-2.62,3.61-1.46,5.58,3.63,6.19,10.21,10.45,16.93,12.6s13.95,2.23,20.46,0c7.72-2.64,14.77-8.4,15.21-17.08.44-8.6-5.33-16.26-10.52-22.53s-11.29-12.64-17.6-18.28-12.9-10.31-19.57-15.24c-2.34-1.73-5.47-4.37-7.1-6.63-.47-.65-.9-1.34-1.28-2.05-.12-.23-.42-.86-.42-.85-.01-.02-.26-.75-.35-1.05-.11-.38-.2-.77-.28-1.15-.01-.06-.09-.62-.03-.16-.02-.17-.03-.35-.04-.52-.02-.41-.03-.82-.01-1.24,0-.22.02-.44.04-.66-.03.35-.02.08.02-.11.14-.73.33-1.44.6-2.14-.19.49.19-.39.26-.52.19-.37.4-.73.63-1.09.07-.11.63-.9.33-.51.23-.3.48-.58.73-.85.55-.6,1.15-1.16,1.78-1.69.03-.03.46-.37.14-.12.13-.1.27-.2.41-.3.32-.23.65-.46.98-.67.72-.47,1.47-.9,2.23-1.3,1.55-.81,2.52-1.21,4.22-1.77,7.4-2.44,15.52-3.03,23.26-2.54s16.13,2.46,23.58,5.54c1.86.77,3.68,1.65,5.46,2.58,2.51,1.31,4.66-2.32,2.22-3.8h0Z" fill="#fff"/>
      <path d="M135.24,802.75c.75-1.96.97-3.93,1.21-6s.31-4.35-.24-6.46c-1.13-4.31-3.5-8.27-6.52-11.52-7.06-7.57-17.65-9.74-27.62-9.69-9.34.05-18.99,1.51-27.86,4.44s-16.97,7.31-22.94,14.26c-12.78,14.9-12.01,37.19-1.77,53.26,10.74,16.85,29.24,26.62,48,31.88,10.47,2.93,21.24,4.69,31.97,6.35,4.27.66,8.43.85,12.72.22,3.71-.55,7.82-2.03,10.24-5.03,1.35-1.67,2.34-3.53,2.63-5.69s-.52-4.59-2.91-5.13c-2.22-.51-4.5.67-5.13,2.91-.05.19-.12.37-.17.56-.22.82.06-.26.12-.23.04.02-.48.89-.52.95-.09.15-.2.3-.29.45-.31.51-.08-.23.21-.26-.16.02-.68.71-.83.84-.13.12-.27.22-.4.34-.33.31.36-.29.38-.29-.17-.01-.75.49-.91.59-.12.07-.98.43-.99.51.01-.15.9-.34.28-.12-.23.08-.45.17-.68.24-.76.25-1.53.45-2.32.6-.15.03-1.5.24-.79.14.64-.08.09-.01-.03,0-.32.03-.63.06-.95.09-1.7.13-3.41.11-5.11,0-.42-.03-.84-.07-1.25-.11-.21-.02-.41-.05-.62-.07-.56-.06-.14.18.27.04-.33.11-1.19-.18-1.52-.23-.7-.11-1.39-.22-2.09-.33-2.48-.39-4.95-.78-7.42-1.2-5.02-.85-10.02-1.78-14.98-2.92s-9.83-2.49-14.62-4.17c-1.18-.41-2.35-.85-3.51-1.3-.46-.18-.92-.36-1.38-.55-.24-.1-.48-.2-.73-.3.85.36-.34-.15-.4-.18-1.93-.85-3.82-1.76-5.68-2.74s-3.68-2.04-5.46-3.16c-.89-.56-1.76-1.14-2.63-1.74-.43-.3-.86-.6-1.28-.91-.21-.15-.42-.31-.63-.46-.08-.06-.91-.68-.5-.37s-.25-.2-.34-.26c-.2-.16-.41-.33-.61-.49-.41-.33-.81-.66-1.2-1-.84-.72-1.67-1.46-2.47-2.22-1.51-1.43-2.95-2.93-4.3-4.51-.34-.39-.67-.79-1-1.2-.16-.2-.32-.4-.48-.61.11.14.46.61-.04-.05-.62-.83-1.22-1.68-1.8-2.55-1.18-1.78-2.26-3.64-3.19-5.56-.22-.46-.43-.94-.65-1.41-.29-.61.23.58-.02-.04-.1-.24-.19-.48-.29-.72-.4-1.02-.77-2.06-1.09-3.11-.62-1.98-1.1-4-1.44-6.04-.03-.19-.23-1.71-.13-.78-.06-.51-.12-1.03-.16-1.54-.09-1.03-.15-2.05-.16-3.08s0-2.05.06-3.08c.03-.51.07-1.02.11-1.53.02-.25.05-.51.08-.76.08-.83-.06.31.02-.2.35-2.07.77-4.11,1.42-6.11.14-.42.28-.84.44-1.26.09-.24.18-.47.27-.71.04-.11.35-.84.15-.37s.12-.26.17-.36c.11-.23.21-.46.32-.69.25-.51.51-1.02.79-1.52.49-.9,1.03-1.77,1.6-2.61.28-.41.58-.82.87-1.22-.45.63.31-.38.49-.6,1.29-1.55,2.72-2.98,4.25-4.3.37-.32.75-.62,1.13-.93.49-.41-.51.36.01-.01.15-.11.29-.22.44-.33.89-.65,1.8-1.27,2.74-1.85,1.68-1.04,3.43-1.98,5.22-2.81.45-.21.91-.41,1.36-.61.14-.06.74-.3.03-.02.23-.09.46-.19.7-.28.93-.37,1.88-.72,2.83-1.05,1.97-.68,3.98-1.27,6.01-1.78s4.08-.95,6.13-1.32c.93-.17,1.86-.32,2.8-.47.5-.08.99-.16,1.49-.23.25-.04.49-.07.74-.11.7-.1-1.05.13.31-.04,4.66-.58,9.37-.92,14.07-.61.57.04,1.14.09,1.71.14.16.02,1.43.18.85.09,1.27.18,2.52.43,3.77.73,1.03.26,2.05.56,3.05.91,1.16.4,2.08.78,2.84,1.13,3.56,1.62,6.23,3.66,8.51,6.69,1.99,2.63,3.76,6.24,4.24,9.73.23,1.65-.25,3.45-.78,5-.83,2.42,2.91,3.38,3.8,1.05h0Z" fill="#fff"/>
      <path d="M160.69,783.96c-1.31,11.78.3,24.01,4.86,34.96s11.87,21.97,21.74,29.13c5.31,3.85,11.94,6.09,18.47,4.56,5.76-1.35,10.51-5.49,13.68-10.36,3.67-5.63,4.91-12.45,5.2-19.06.31-7.03-.24-14.11-.49-21.14-.3-8.14-.59-16.27-.89-24.41-.14-3.95.14-9.1-3.73-11.48-1.87-1.15-4.14-1.02-5.96.17-1.55,1.01-2.66,3.16-1.9,5s2.63,2.41,4.15,1.1c-.57.49-.95.44-1.61.42.12,0,.34.08.44.12-.42-.16-.57-.28-.91-.53.42.3.88.63,1.26.96-.26-.23-.48-.36-.7-.64-.5-.65.06-.31-.02-.04l.09.36c-.05-.54-.05-.55,0-.04.02.37.03.74.05,1.12.12,3.24.28,6.48.42,9.71.28,6.56.56,13.12.85,19.68s.74,12.49.59,18.72c-.03,1.38-.1,2.76-.23,4.14-.14,1.49-.26,2.32-.67,4.09-.31,1.36-.74,2.67-1.19,3.99-.05.14-.29.74,0,.02-.12.28-.25.56-.38.83-.29.61-.6,1.21-.94,1.79-.31.53-.64,1.05-.98,1.55-.14.2-.28.4-.43.6-.67.94.33-.33-.14.18-.83.89-1.6,1.8-2.53,2.6-.15.13-.78.63-.15.15-.19.14-.38.28-.58.42-.49.34-.99.66-1.51.94-.21.11-.42.23-.63.33-.11.06-1.19.5-.32.17-.55.21-1.11.4-1.69.55-.29.08-.58.14-.87.2-.22.04-1.01.14-.16.05-.61.06-1.21.1-1.82.1s-1.2-.03-1.8-.1c.84.1-.45-.1-.5-.11-.39-.08-.78-.18-1.17-.29-1.42-.4-1.78-.55-2.82-1.07-1.24-.61-2.43-1.33-3.56-2.11-1.23-.85-1.68-1.21-2.84-2.23-1.03-.9-2.01-1.84-2.96-2.81-1.82-1.85-3.55-3.81-5.15-5.87-.46-.59.5.68-.28-.37-.16-.22-.32-.43-.48-.64-.4-.54-.78-1.08-1.16-1.63-.76-1.1-1.49-2.22-2.19-3.36-1.39-2.28-2.66-4.64-3.79-7.05-4.75-10.13-7.38-21.9-6.91-33.38.05-1.29-1.14-2.39-2.39-2.39-1.41,0-2.25,1.1-2.39,2.39h0Z" fill="#fff"/>
      <path d="M354.38,760.74c-7.1-.37-14.19.04-21.21,1.11-3.44.53-6.86,1.24-10.23,2.12-3.08.81-6.23,1.76-8.96,3.43-5.21,3.18-8.07,8.71-8.01,14.77s2.61,11.65,6.67,15.97c8.2,8.75,20.43,11.45,29.74,18.64-.61-.48.36.31.39.33.29.24.58.49.86.74.47.42.92.85,1.36,1.3,1.11,1.12,1.58,1.68,2.24,2.66.35.51.67,1.04.97,1.58.18.33.34.66.51.99.54,1.02-.19-.61.22.49.57,1.53.77,2.5.76,3.82,0,.79-.43,1.62-.96,2.13-.09.08-.67.59-.26.27-.29.23-.62.43-.94.61-.65.39-1.34.72-2.03,1.03-1.1.5.36-.14-.38.16-.34.14-.69.28-1.03.41-.69.27-1.39.53-2.09.77-1.68.59-3.38,1.13-5.09,1.61-7.09,1.98-13.6,2.85-20.97,2.81-1.78,0-3.56-.08-5.34-.2-.89-.06-1.78-.14-2.66-.24-.37-.04-.74-.08-1.11-.12-.22-.03-.44-.05-.66-.08.35.05.27.04-.23-.03-1.76-.26-3.51-.58-5.25-.94-1.08-.22-2.18-.4-3.28-.41-1.35-.01-2.35.52-3.51,1.11-1.23.63-1.73,2.51-.96,3.66.6.89,1.15,1.84,2.09,2.42.74.46,1.73.82,2.58,1.07,1.54.47,3.23.62,4.83.85,3.45.49,6.91.82,10.4.89,6.71.15,13.48-.55,20.04-1.99,3.19-.7,6.33-1.59,9.41-2.68s6.17-2.16,8.88-3.86c2.85-1.79,5.11-4.47,5.65-7.86s-.38-6.97-1.91-10.15c-5.33-11.07-17.53-15.28-27.51-20.9-1.23-.69-2.45-1.42-3.62-2.2-.56-.37-1.1-.76-1.65-1.15-1.06-.75.56.48-.44-.33-.36-.3-.72-.59-1.07-.9-1.05-.92-1.98-1.93-2.93-2.95-.76-.83.43.66-.22-.27-.13-.19-.27-.38-.4-.58-.4-.59-.76-1.19-1.09-1.82-.17-.31-.31-.64-.48-.95-.54-1.02.25.76-.15-.32-.21-.55-.41-1.11-.59-1.67s-.34-1.12-.47-1.7c-.08-.34-.13-.68-.2-1.03-.19-.95,0,.58-.04-.3-.03-.68-.09-1.36-.06-2.05,0-.22.03-.45.04-.67.04-1.09-.19.79.02-.28.11-.55.22-1.08.38-1.62.1-.32.21-.63.32-.94-.29.8.1-.17.16-.28.71-1.35,1.07-1.82,2.25-2.77.36-.29,1.34-.9,1.98-1.25.24-.13.48-.25.72-.37.24-.12.49-.23.73-.35.41-.18.5-.22.26-.11,3.34-1.35,6.9-2.29,10.4-3.11,7.59-1.79,15.35-2.6,23.15-2.52,3.76.04,3.72-5.62,0-5.81h0Z" fill="#fff"/>
      <path d="M403.51,817.07c12.7-2.75,24.13-11.26,29.82-23.05,1.8-3.72,2.91-7.78,2.11-11.92-.56-2.89-2.24-5.57-4.52-7.42-4.88-3.95-11.61-4.87-17.39-2.47-12.1,5.01-17.88,19.47-18.63,31.73-.72,11.85,3.22,24.08,11.3,32.85,5.2,5.65,12.92,10.6,20.91,9.95,4-.33,7.81-1.96,10.66-4.85,1.4-1.42,2.68-3.22,3.3-5.14s.18-4.28-1.04-5.96c-1.09-1.5-3.14-1.63-4.21,0-.02.03-.61.8-.23.33-.31.38-.61.76-.87,1.18-.43.68-.78,1.3-1.12,2.04.32-.72,0-.03-.09.15-.13.25-.27.5-.42.75-.05.09-.71,1-.19.33-.22.27-.45.53-.69.78s-.51.48-.77.72c-.53.5-.18.15-.04.05-.58.42-1.2.75-1.82,1.11-.11.06-.68.32-.04.05-.33.14-.66.25-1,.36-.28.09-.57.16-.85.23-.17.04-.34.08-.52.11.48-.05.45-.05-.08,0-.7.05-1.39.07-2.09.04.02,0-1.33-.13-.63-.04-.27-.04-.55-.09-.82-.15-1.7-.35-2.98-.82-4.24-1.46-2.62-1.33-4.38-2.65-6.42-4.6-.87-.83-1.69-1.71-2.47-2.62-.22-.26-.44-.53-.65-.79-.08-.1-.43-.57-.04-.04-.41-.55-.81-1.1-1.19-1.67-.7-1.04-1.35-2.12-1.94-3.23-.27-.5-.53-1.01-.78-1.53-.15-.31-.29-.62-.43-.93-.06-.14-.45-1.06-.17-.37-.96-2.34-1.7-4.77-2.23-7.24-.12-.56-.23-1.13-.33-1.7-.06-.34-.11-.68-.16-1.03.1.68,0,.09,0-.05-.16-1.38-.27-2.76-.31-4.15-.03-1.16-.02-2.31.05-3.47.03-.58.07-1.15.13-1.73.03-.35.07-.69.11-1.03.09-.88-.08.4.05-.4.42-2.51.98-4.98,1.82-7.39.21-.6.43-1.19.67-1.78s-.35.76.11-.25c.14-.32.28-.63.43-.95.58-1.22,1.22-2.41,1.93-3.56.65-1.06,1.48-2.21,2-2.85.94-1.12,1.96-2.13,3.07-3.09,1.55-1.35,3.75-2.38,6.05-2.9.18-.04.88-.1.18-.04.32-.03.64-.06.97-.07.54-.02,1.08.02,1.62.04,1.03.04-.65-.16.35.04.21.04.43.08.64.12.63.14,1.24.34,1.86.54.95.31-.53-.31.35.14.28.15.57.28.84.44.18.1.36.21.54.33.06.04.89.64.32.19.41.32.79.68,1.14,1.06.05.06.67.84.25.26.18.25.35.51.51.78s.3.54.43.83c-.24-.54-.02-.04,0,.07.18.71.36,1.34.39,1.97.07,1.5-.22,2.83-.7,4.27-1.93,5.89-6.14,10.66-10.57,14.78s-9.7,7.2-15.39,9.04c-2.7.87-1.6,4.85,1.17,4.25h0Z" fill="#fff"/>
      <path d="M485.23,720.32c-.57,3.04-.59,6.12-.71,9.21s-.23,5.99-.31,8.98c-.17,5.99-.28,11.97-.36,17.96-.14,11.89-.09,23.78.14,35.67.07,3.32.15,6.65.24,9.97.1,3.55-.11,7.32.62,10.8.41,1.98,2.59,3.17,4.47,2.92,2.14-.29,3.32-1.96,3.54-4.01.31-2.91-.22-6.05-.38-8.97s-.31-5.82-.45-8.72c-.28-5.9-.51-11.8-.7-17.71-.37-11.8-.56-23.61-.56-35.42,0-3.33,0-6.65.02-9.98s.26-6.68-.15-9.97c-.17-1.37-.92-2.54-2.4-2.72-1.26-.15-2.78.61-3.03,1.98h0Z" fill="#fff"/>
      <path d="M491.22,838.74c.75-1.25.47-2.92-.83-3.69-1.01-.59-2.15-.37-3.14.1-.74.35-1.38.99-1.78,1.69-.52.92-.52,2.09-.49,3.12.06,2.17.77,4.18,2.21,5.82,1.23,1.4,3.33,2.27,5.19,2.17,2.35-.13,4.65-1.5,5.31-3.88.55-1.99-.14-4.41-1.73-5.76-.99-.84-2.18-1.42-3.51-1.34-.74.04-1.59.22-2.23.63-.92.59-1.48,1.48-1.75,2.52-.52,2.04.17,4.03,1.54,5.57s3.2,2.23,5.11,2.4c1.07.09,2.13-.18,3.08-.68,1.63-.86,2.87-2.73,2.28-4.61-.46-1.47-1.67-2.3-3.16-2.41-1.11-.08-1.96.52-2.79,1.16l.7-.54c-.15.11-.3.19-.47.26l.84-.35c-.25.1-.52.14-.78.19l.95-.13c-.28.04-.56.03-.84,0l.94.13c-.36-.05-.7-.14-1.03-.27l.84.36c-.37-.15-.7-.35-1.02-.59l.71.55c-.22-.18-.43-.38-.61-.6l.55.71c-.15-.2-.28-.4-.38-.63l.35.83c-.08-.2-.14-.39-.17-.6l.12.92c-.03-.21-.03-.42,0-.63l-.12.92c.03-.19.09-.38.16-.56l-1.58,2.06c.06-.04.13-.07.19-.09l-.82.35c.1-.04.19-.06.29-.08l-.91.12c.13-.02.26-.02.39,0l-.91-.12c.16.03.32.07.47.13l-.81-.34c.16.07.3.16.44.26l-.68-.53c.17.14.32.28.45.45l-.52-.68c.16.21.28.42.38.66l-.33-.79c.08.21.13.41.16.63l-.12-.87c.02.18.02.35,0,.53l.12-.86c-.03.14-.06.27-.11.41l.32-.77c-.06.14-.14.26-.23.39l.5-.64c-.13.16-.27.29-.43.42l.64-.49c-.16.12-.33.21-.51.3l.75-.32c-.26.11-.52.18-.8.22l.83-.11c-.33.04-.65.04-.98,0l.82.11c-.34-.05-.66-.14-.97-.26l.73.31c-.31-.13-.6-.3-.87-.5l.61.47c-.14-.11-.27-.23-.39-.35-.07-.07-.14-.15-.2-.22.31.41.37.5.19.25-.22-.34-.41-.67-.57-1.04l.3.7c-.21-.51-.38-1.05-.53-1.58-.08-.27-.14-.54-.2-.81-.04-.2-.03-.66-.14-.81l.06.46c0-.18,0-.12-.03.17-.05.29-.05.34,0,.17l-.19.45s.13-.24.14-.24c-.03,0-.5.57-.15.23.25-.25-.5.32-.26.19.06-.03.12-.07.17-.11.25-.18-.59.21-.33.14-.5.12-1.32,0-1.59-.2l-.86-.86c.24.32.15-.02-.27-1.03.1-.51.11-.65.03-.41-.38,1.11.34,2.34,1.36,2.76,1.07.45,2.32.05,2.93-.96h0Z" fill="#fff"/>
      <path d="M210.75,69.72l.47-7.46c.11-1.78-1.55-3.11-3.19-3.19-3.69-.17-7.46.34-11.13.8-3.94.5-7.86,1.12-11.73,2.04-7.17,1.7-14.4,4.38-20.38,8.78-6.35,4.68-11.32,11-13.57,18.64s-1.63,15.77,1.14,22.94c2.96,7.65,8.13,14.2,15.26,18.35s15.6,5.84,23.69,4.94,16.31-4.24,22.61-10.03c5.97-5.49,10.17-12.95,12.11-20.8,4.04-16.34-2.06-35.16-16.23-44.78-.77-.52-1.56-1.05-2.39-1.5-1.08-.58-2.17-.75-3.36-.93-2.9-.45-4.59,2.46-2.77,4.76.37.47.95,1.43,1.63,2.02.75.66,1.55,1.26,2.29,1.93,1.34,1.23,2.61,2.55,3.86,3.87.61.64,1.19,1.3,1.76,1.98.14.17.87,1.09.4.48.31.4.6.81.89,1.22,1.09,1.54,2.07,3.16,2.94,4.84.4.78.77,1.58,1.13,2.39-.32-.71.13.33.22.56.18.47.35.94.51,1.42.59,1.73,1.06,3.5,1.4,5.29.09.48.16.96.24,1.44-.13-.76,0-.03.03.31.1.97.16,1.94.19,2.91.05,1.76-.03,3.52-.23,5.27-.02.14-.12.91-.04.33.07-.54-.01.07-.03.15-.07.42-.14.84-.21,1.26-.17.9-.37,1.79-.59,2.67-.46,1.77-1.05,3.49-1.73,5.18.31-.78-.09.19-.22.47-.18.39-.36.77-.55,1.15-.41.81-.84,1.61-1.3,2.39-.43.73-.89,1.44-1.36,2.14-.24.35-.48.7-.73,1.04-.14.2-.29.39-.43.58.23-.31.29-.36.01-.03-1.15,1.4-2.37,2.74-3.71,3.96-.62.57-1.27,1.12-1.93,1.64.66-.52-.2.14-.43.3-.4.28-.8.56-1.21.82-.72.46-1.46.9-2.21,1.31-.38.2-.76.4-1.14.59-.22.11-.44.21-.66.32-.1.05-1.03.46-.49.23.43-.18-.7.27-.84.33-.4.15-.8.29-1.21.43-.87.29-1.75.55-2.64.77-.83.21-1.67.38-2.51.53-.24.04-.48.08-.72.12-.08.01-.69.1-.15.03.58-.08-.2.02-.34.03-.24.03-.49.05-.73.07-1.83.16-3.67.19-5.5.07-.43-.03-.85-.06-1.28-.1-.19-.02-1.4-.17-.88-.1s-.07-.02-.15-.03c-.24-.04-.48-.08-.72-.12-.48-.09-.96-.18-1.44-.29-1.79-.4-3.53-.95-5.23-1.61-.78-.3.44.21-.32-.13-.44-.2-.88-.41-1.32-.63-.81-.41-1.61-.86-2.39-1.34-.73-.45-1.41-.95-2.12-1.43-.4-.27.09.07.14.12-.19-.15-.38-.31-.57-.46-.36-.3-.71-.6-1.05-.91-.6-.54-1.17-1.11-1.72-1.71-.27-.3-.54-.6-.81-.9-.14-.17-1.11-1.4-.52-.61-.99-1.35-1.91-2.74-2.7-4.22-.38-.71-.71-1.45-1.07-2.18-.21-.44.07.18.09.22-.09-.21-.17-.43-.26-.64-.17-.43-.33-.87-.48-1.3-.57-1.64-1.01-3.32-1.32-5.03-.07-.4-.13-.8-.2-1.2-.08-.5.03.23.04.27-.02-.23-.05-.46-.08-.69-.08-.86-.14-1.72-.15-2.59-.02-.81,0-1.61.04-2.41.02-.4.05-.8.09-1.2.03-.36.21-1.51.05-.58.29-1.7.61-3.38,1.14-5.02.24-.76.52-1.52.82-2.26-.31.75.09-.16.21-.43.2-.42.41-.83.63-1.23.38-.71.8-1.4,1.23-2.07.22-.33.44-.66.66-.99.13-.19.89-1.19.37-.53,1.03-1.31,2.16-2.55,3.38-3.69.56-.53,1.15-1.04,1.75-1.53.17-.14.35-.28.52-.42-.04.03-.5.37-.14.11s.72-.53,1.08-.79c1.38-.97,2.82-1.85,4.3-2.65.7-.38,1.41-.74,2.13-1.08.36-.17.72-.34,1.09-.51.19-.09,1.34-.57.68-.3,1.56-.65,3.15-1.23,4.76-1.75,3.34-1.08,6.76-1.91,10.2-2.57,1.76-.34,3.54-.63,5.31-.89.35-.05.71-.1,1.06-.15-.54.08.05,0,.14-.02.24-.03.47-.06.71-.09.89-.11,1.77-.21,2.66-.31,1.87-.2,3.72-.39,5.58-.75l-3.92-2.23,1.27,7.22c.47,2.69,4.37,1.84,4.53-.61h0Z" fill="#fff"/>
      <path d="M262.4,47.28c-3.43,5.91-6.37,11.97-8.74,18.38s-4.14,12.41-5.59,18.79-2.69,13.38-3.17,20.14c-.45,6.33.54,12.68,4.76,17.65,6.91,8.12,19.62,8.66,28.78,4.59,10.97-4.86,17.78-16,23.42-26.03,7.28-12.95,13.81-27.11,13.51-42.29l-8.46,1.14c.12.63.23,1.27.32,1.91-.06-.44.09.82.11,1,.12,1.2.19,2.4.23,3.6.08,2.5.01,4.99-.13,7.49-.28,4.94-.86,9.86-1.18,14.81-.5,7.93-.2,16.37,2.76,23.84,1.76,4.43,4.31,8.52,7.87,11.74,1.74,1.57,4.65,1.85,6.34,0,1.6-1.75,1.83-4.63,0-6.34-.63-.59-1.23-1.21-1.8-1.86-.15-.17-1.02-1.37-.44-.51-.28-.4-.57-.79-.83-1.2-.47-.71-.9-1.45-1.29-2.2-.2-.38-.39-.76-.57-1.15-.1-.22-.2-.45-.3-.67-.29-.61.26.71.04.08-.64-1.76-1.27-3.48-1.72-5.3-.21-.85-.39-1.71-.55-2.58-.08-.43-.15-.87-.22-1.31-.03-.2-.12-.89,0,.08-.03-.25-.06-.5-.09-.76-1.01-8.74.3-17.47.73-26.2.28-5.62.1-11.23-.99-16.77-.41-2.1-2.75-3.35-4.72-3.08s-3.79,2.08-3.73,4.23c.18,6.25-.66,11.04-2.54,17.11s-4.02,10.67-6.93,16.28c-2.59,5-5.31,9.98-8.45,14.65-.71,1.05-1.44,2.08-2.2,3.1s.48-.57-.34.44c-.17.2-.33.41-.5.62-.5.61-1.02,1.21-1.55,1.8-.88.97-1.8,1.9-2.77,2.78-.43.39-.88.78-1.33,1.15-.12.1-.78.62-.26.22-.31.24-.63.47-.95.69-1.07.75-2.19,1.45-3.35,2.05-.47.25-.95.48-1.44.69.76-.33.22-.09.05-.04-.41.14-.81.3-1.22.43-.98.31-1.98.56-2.99.74-.27.05-.53.09-.8.13.84-.14.27-.03.08-.02-.65.05-1.29.11-1.95.13-1.08.03-2.15-.03-3.22-.13-.75-.07-.05-.01.09.01-.31-.05-.63-.1-.94-.17-.52-.1-1.03-.22-1.54-.37s-1-.3-1.49-.48c-.15-.05-1.1-.47-.22-.07-.19-.09-.38-.17-.56-.26-.46-.22-.91-.47-1.35-.73-.22-.13-.43-.27-.65-.41-.16-.11-1.06-.79-.33-.2-.76-.61-1.43-1.29-2.08-2.01-.15-.16-.52-.73-.06-.07-.15-.21-.3-.42-.44-.64-.33-.52-.63-1.06-.9-1.61-.58-1.2.08.27-.19-.45-.12-.33-.23-.66-.33-1-.2-.67-.36-1.36-.49-2.05-.2-1.11-.29-2.35-.3-3.88-.05-5.94.83-11.78,1.84-17.53,1.22-6.89,2.92-13.69,5.09-20.35s4.56-13.07,7.35-19.36c.53-1.2.35-2.6-.87-3.32-1.13-.66-2.66-.27-3.32.87h0Z" fill="#fff"/>
      <path d="M246.95,786.67c-.07,2.57.34,5.1.65,7.65l.93,7.65c.63,5.23,1.29,10.45,2.01,15.67,1.41,10.23,2.82,20.47,4.22,30.7.81,5.86,1.61,11.72,2.42,17.58l5.69-1.57c-2.76-14.23-3.13-28.96-1.45-43.35.83-7.15,2.32-14.32,4.3-21.28s4.27-13.48,7.36-19.78c.37-.76.78-1.51,1.24-2.22.41-.62.57-.82,1.27-1.49s-.44.25.39-.27c.36-.18.39-.21.08-.09.21-.08.42-.14.64-.19-.58.14.2-.02.31-.02.38-.01.76,0,1.15.02,3,.14,6.92.87,8.83-2.14l-.99.99c1.58-1.01,2.14-2.92,1.55-4.67-.7-2.1-3.29-1.89-4.07,0,.05-.11.47-.53.32-.38-.18.1-.1.06.23-.1-.29.09-.57.22-.83.38l1.4-.38c-.19-.02-.39-.02-.58,0-.56.07.53.09-.07,0-.51-.07-1.01-.13-1.52-.17-.25-.02-1.04-.1-.37-.02-1.49-.17-3-.36-4.5-.37-3.83-.04-6.7,1.97-8.84,5.02s-3.31,6.53-4.65,9.83c-1.44,3.56-2.74,7.19-3.88,10.86-4.54,14.62-6.83,30.2-6.31,45.52.29,8.7,1.4,17.38,3.27,25.88.34,1.56,2.15,2.47,3.63,2.06,1.67-.46,2.32-2.05,2.06-3.63-3.32-20.32-6.43-40.69-10.08-60.95l-1.5-8.32c-.53-2.93-.9-5.91-1.85-8.74-.45-1.34-2.45-1.13-2.49.34h0Z" fill="#fff"/>
    </g>
  </g>
</svg>