<?xml version="1.0" encoding="UTF-8"?>
<svg id="Layer_2" data-name="Layer 2" xmlns="http://www.w3.org/2000/svg" width="360.36" height="359.6" viewBox="0 0 360.36 359.6">
  <g id="Layer_1-2" data-name="Layer 1">
    <g>
      <path d="M183.14,159.39c-.65-4.37-2.52-7.71-4.8-13.29,0,0-2.52.63-5.99,4.1,2.83,1.7,4.39,3.65,5.59,9.52-8.87.6-29.61-2.3-28.61,18.71.88,18.57,20.54,26.03,27.02,23.72,4.86,1.39,10.88,1.39,12.74-.46,4.28.58,17.94-1.41,20.25-16,2.26-14.21-.65-27.59-26.2-26.29ZM193.15,167.99l3.75,9.75-9.56-3.38,5.81-6.38ZM181.71,177.18l3.19,6.19h-5.81l2.63-6.19ZM168.58,168.55l7.69,6.56-9.38,2.81,1.69-9.38ZM198.59,194.06l-6.38-1.31-5.81,3.94-6.94-3.19-5.63,3-4.69-4.31-6.19,1.69-4.13-12.57,4.88,6.38,5.06-1.5,5.44,3.19,5.25-2.25,5.44,2.63,5.63-2.81,4.69,1.13,8.06-6.75-4.69,12.75Z" fill="#d3650b"/>
      <path d="M187.29,28.74c-3.63-5.01-7.6-8.06-12.2-8.49-5.25-.49-9.29,4.9-14.55,2.45,1.35,2.45,2.15,2.94,2.15,2.94,8.42,2.71,6.69-2.67,12.13,3.93-10.2,1.15-24.91,4.86-21.31,19.62,4.74,19.46,17.46,24.95,24.45,22.46,5.24,1.5,11.73,1.5,13.72-.5,4.62.62,12.72.5,15.22-15.22,2.35-14.82,5.14-27.64-19.63-27.18ZM186.98,44.01c.5,1.08,1.6,1.83,2.87,1.83,1.75,0,3.17-1.42,3.17-3.17,0-.84-.33-1.6-.87-2.17,1.43-.96,2.78-1.86,3.82-2.53,1.65,1.24,2.72,3.21,2.72,5.44,0,3.76-3.05,6.81-6.81,6.81-3.15,0-5.8-2.14-6.57-5.05.5-.34,1.07-.73,1.69-1.16ZM168.41,37.97c.99.65,2.27,1.5,3.63,2.41-.61.58-.99,1.39-.99,2.29,0,1.75,1.42,3.17,3.17,3.17,1.33,0,2.47-.82,2.94-1.99.71.48,1.36.93,1.92,1.32-.78,2.91-3.42,5.05-6.57,5.05-3.76,0-6.81-3.05-6.81-6.81,0-2.22,1.07-4.19,2.72-5.44ZM163.84,55.67c5.46,3.23,17.65,5.19,24.52,1.35s12.66-1.95,13.27-2.76c-4.04,5.86-21.22,24.65-37.78,1.41Z" fill="#efd486"/>
      <path d="M63.3,119.77c.2-.26-.27-.65-.38-1.07-.89-3.57.45-5.8,1.78-11.14-2.67-1.34-9.81-1.78-15.6.45,5.35,3.57,3.12,11.59,3.12,11.59,0,0-.33.08-.76.23-13.79,1.36-22.96,8.39-22.96,21.34,0,14.46,13.1,25.78,29.26,25.78s29.26-11.32,29.26-25.78c0-12.94-9.94-20.03-23.73-21.39ZM66.82,127.91c3.72,5.29,5.82,7.54,6.56,8.71-4.72.84-9.43,1.21-9.43,1.21,1.35-4.19,1.84-6.5,2.87-9.92ZM49.48,128.32c2.73,5.69,4.36,8.47,4.88,9.75h-10.33c2.05-3.34,4.01-6.74,5.45-9.75ZM37.55,143.68c8.19,2.31,15.85,3.72,23.1,3.58.26,1.92.26,4.67.26,4.67,0,0,5.22.14,6.9-.29,1.33-.34,1.72-3.96,1.83-5.43,3.1-.69,6.13-1.74,9.11-3.2,4.54,18.27-35.53,26.24-41.2.66Z" fill="#c44310"/>
      <path d="M104.56,255.43c-.49-3.28.81-5.74,2.12-10.96-2.88-1.44-10.56-1.92-16.8.48,4.36,2.91,4.04,8.57,3.63,11.14-10.41.95-26.48,3.73-24.88,20.17,2.12,21.83,19.1,25.73,26.27,23.17,5.37,1.53,12.03,1.53,14.07-.51,4.73.64,15.95,1.34,18.51-14.78,2.41-15.18,2.37-29.14-22.93-28.7ZM100.83,271.91c1.79,0,3.25,1,3.25,2.23s-1.36-.37-3.15-.37-3.34,1.6-3.34.37,1.45-2.23,3.25-2.23ZM83.77,266.59c4.7-3.18,11.05-1.93,12.57-.41s-.97,3.32-2.9,2.62-3.04-1.24-6.77.69c-3.73,1.93-3.64,3.24-5.39,1.93-.55-.41-2.21-1.66,2.49-4.83ZM112.09,292.24c-6.29-2.62-11.66-6.03-18.48-4.32-6.81,1.7-11.79,4.72-13.1-.26-1.8-6.85,5.24-9.57,15.73-9.83,10.48-.26,20.97-1.7,22.93,3.41,1.97,5.11-.79,13.63-7.08,11.01ZM119.49,270.9c-1.75,1.31-1.66,0-5.39-1.93-3.73-1.93-4.84-1.38-6.77-.69s-4.42-1.1-2.9-2.62c1.52-1.52,7.87-2.76,12.57.41,4.7,3.18,3.04,4.42,2.49,4.83Z" fill="#fcb247"/>
      <path d="M303.39,118.19c4.08-4.68,3.02-.43,10.18-2.74,0,0,.72-.44,1.92-2.62-4.69,2.19-8.3-2.62-12.99-2.19-4.24.4-7.89,3.3-11.21,8.04-11.69,1.71-20.18,7.24-20.18,17.91,0,13.16,12.9,23.83,28.82,23.83s28.82-10.67,28.82-23.83c0-12.19-11.08-17.67-25.36-18.41ZM310.2,129.16c1.99,0,3.61,1.62,3.61,3.61s-1.62,3.61-3.61,3.61-3.61-1.62-3.61-3.61,1.62-3.61,3.61-3.61ZM294.42,129.52c2.54,0,4.6,2.06,4.6,4.6s-2.06,4.6-4.6,4.6-4.6-2.06-4.6-4.6,2.06-4.6,4.6-4.6ZM316.23,148.25c-.57.69-1.18,1.3-1.82,1.85-.23-.64-.52-1.3-.77-1.8-.97.34-2.71.8-3.43,1.61-.51.58-.27.71.16,1.31.16.23.54.71.8,1.02-3.65,1.83-7.89,2.35-12.08,2.54-4.74.22-12.42-2.56-14.95-6.87-2.21-3.76-4.55-10.41-.5-13.68-.62.46-.71,1.56-.62,2.39.2,1.26,1.06,1.75,1.63,3.05.69,1.56,1.75,1.99,3.1,2.74.54.3,1.07.61,1.6.92-.28.63-1.09,1.24-1.16,1.88-.09.99,1.35,1.21,2.16,1.53.84.33,1.72,1.02,2.46.38.22-.19.62-.81.91-1.35.63.3,1.27.58,1.93.82.49.18.99.32,1.5.45-.02.61-.14,1.25-.2,1.78.66.04,2.29.41,2.78.09.32-.21.46-.81.55-1.42,4.7.22,9.55-1.39,13.58-3.48,3.39-1.75,6.54-6.86,4.81-10.76,2,4.36.47,11.5-2.45,15Z" fill="#eda20c"/>
      <path d="M261.33,255.99c-.84-3.79.61-6.3,2.06-12.1-2.98-1.49-10.92-1.99-17.38.5,4.51,3.01,4.18,8.85,3.76,11.52-16.45.91-29.06,6.36-29.06,18.18,0,13.03,15.33,23.59,34.25,23.59s34.25-10.56,34.25-23.59c0-11.52-12-16.99-27.87-18.1ZM274.78,263.67l.92,6.89-15.16-3.91,14.24-2.99ZM255.01,269.27l4.51,6.47-8.04-.59,3.53-5.88ZM234.58,264.12l14.93,2.76-15.39,4.14.46-6.89ZM231.86,278.24l7.86-.14,4.36,3.79,5.15-3.64,6.43,4.07,5.79-4.07,4.07,3,4.03-3.69,9.05-.17c-6.22,14.58-36.02,21.23-46.74.86Z" fill="#becc2f"/>
      <path d="M357.36,177.76c0,23.74-3.18,47.42-11.74,68.07s-23.01,41-39.14,57.13c-16.13,16.13-35.56,30.65-56.96,39.53s-44.49,9.14-68.23,9.14-47.4-1.03-68.04-9.59c-21.4-8.87-41.47-22.5-57.6-38.63-16.13-16.13-29.12-36.46-38-57.86S3,201.5,3,177.76s7.36-46.61,15.92-67.25,21.53-41.33,37.66-57.46c16.13-16.13,36.63-27.41,58.02-36.29,20.64-8.56,42.95-13.76,66.69-13.76s45.55,6.4,66.19,14.96c21.4,8.87,41.85,19.51,57.98,35.63,16.13,16.13,30.24,35.13,39.12,56.53,8.56,20.64,12.79,43.89,12.79,67.63Z" fill="none" stroke="#fff" stroke-miterlimit="10" stroke-width="6"/>
      <path d="M76.54,29.06c.85,5.5,1.83,10.93,3.1,16.35s2.67,10.55,4.21,15.79c3.09,10.53,6.42,20.99,9.87,31.41,6.86,20.72,14.47,41.18,21.59,61.81,7.13,20.66,13.71,41.48,19.47,62.57,5.65,20.71,10.89,41.54,16.79,62.19,5.93,20.73,12.51,41.31,20.86,61.21,1.08,2.56,2.17,5.12,3.3,7.66.75,1.68,3.2,2.08,4.67,1.22,1.74-1.02,1.97-2.97,1.22-4.67-8.54-19.48-15.21-39.74-21.12-60.15-5.99-20.7-11.2-41.61-16.91-62.38-5.75-20.89-12.14-41.56-19.25-62.03-7.19-20.7-14.85-41.24-22.14-61.91-3.63-10.29-7.28-20.57-10.68-30.94-3.4-10.36-6.34-20.88-10.02-31.14-.91-2.53-1.8-5.08-2.67-7.62-.51-1.48-2.54-.87-2.31.64h0Z" fill="#fff"/>
      <path d="M71.63,28.25c9.06,6.05,18.52,11.49,27.61,17.5s17.89,12.21,26.4,18.89,16.93,13.92,24.89,21.44c8.52,8.04,16.59,16.55,25.06,24.64,15.86,15.14,33.02,28.85,50.48,41.92s35.31,25.41,53.14,37.87c8.92,6.23,17.82,12.5,26.62,18.9,4.4,3.2,8.77,6.44,13.11,9.72,1.06.8,2.11,1.6,3.16,2.4.47.36.93.72,1.4,1.07.23.18.47.36.7.54.78.6-.21-.17.5.38,1.23.95,2.45,1.91,3.69,2.86.23.18.47.36.7.54-.09-.07,1.05.81.6.46s.69.54.6.46c.35.27.7.54,1.05.81,2.09,1.63,4.17,3.27,6.23,4.93,1.79,1.43,4.49,1.88,6.21,0,1.48-1.61,1.9-4.66,0-6.21-17.12-14.02-35.24-26.76-53.47-39.27-17.91-12.3-36.03-24.31-53.72-36.93s-34.82-25.83-50.94-40.5c-8.64-7.86-16.76-16.24-25.18-24.33-7.93-7.62-16.28-14.82-24.9-21.65s-17.69-13.49-27.02-19.52c-9.19-5.94-18.69-11.66-28.68-16.15-2.41-1.08-4.81-2.09-7.28-3.02-1.37-.51-2.05,1.51-.95,2.25h0Z" fill="#fff"/>
      <path d="M180.03,358.65c1.35-5.1,2.32-10.29,3.6-15.42s2.66-10.23,4.08-15.31c2.98-10.68,6.48-21.21,10.25-31.64,7.5-20.75,15.99-41.14,24.01-61.69,8.34-21.34,16.03-42.93,23.01-64.75,7.11-22.22,13.57-44.65,19.37-67.25,5.8-22.58,10.94-45.32,15.41-68.19.55-2.82,1.07-5.65,1.52-8.49.32-2.04-.52-4.37-2.77-4.89-2.01-.46-4.41.6-4.89,2.77-2.5,11.46-4.56,23.01-7.04,34.47s-5.1,22.75-7.89,34.07c-5.62,22.73-11.9,45.29-18.83,67.65s-14.19,43.93-22.23,65.56-15.92,40.97-23.11,61.75c-3.64,10.52-7.05,21.13-10.01,31.87s-5.09,20.86-6.52,31.55c-.34,2.54-.56,5.02-.6,7.59-.02,1.51,2.24,1.82,2.62.36h0Z" fill="#fff"/>
      <path d="M19.37,229.48c8.96-5.37,17.41-11.53,25.82-17.71l25.29-18.6c16.87-12.41,33.61-25,50.4-37.53,16.72-12.49,33.45-24.96,50.16-37.48,16.71-12.52,33.43-25.04,49.95-37.81,16.35-12.63,32.57-25.43,48.59-38.47,1.96-1.6,3.93-3.2,5.88-4.81,1.59-1.3,1.35-4.02,0-5.37-1.56-1.56-3.79-1.31-5.37,0-15.82,13.15-31.8,26.11-48,38.79s-32.63,25.08-49.06,37.46-33.3,25.14-49.93,37.72-33.39,25.09-49.95,37.81-33.44,25.45-49.76,38.69c-1.98,1.61-3.81,3.42-5.67,5.15-1.14,1.06.33,2.95,1.66,2.15h0Z" fill="#fff"/>
      <path d="M339.77,229.74c-21-2.09-42.07-3.16-63.14-4.21s-42.11-1.87-63.18-2.5c-21.05-.62-42.11-1.05-63.17-1.19s-42.09.02-63.13.56c-21.04.54-42.06,1.48-63.06,2.99-2.65.19-5.29.39-7.94.59-1.91.15-3.55,1.53-3.55,3.55,0,1.81,1.63,3.7,3.55,3.55,20.99-1.58,42.01-2.72,63.04-3.49,21.03-.77,42.08-1.14,63.13-1.2s42.12.18,63.17.62c21.06.45,42.12,1.15,63.18,1.78,10.61.32,21.22.66,31.83,1.02s20.89.69,31.32.6c2.65-.02,5.3-.05,7.95-.07,1.71-.02,1.64-2.44,0-2.6h0Z" fill="#fff"/>
    </g>
  </g>
</svg>