<?xml version="1.0" encoding="UTF-8"?>
<svg id="Layer_2" data-name="Layer 2" xmlns="http://www.w3.org/2000/svg" width="916.26" height="236.86" viewBox="0 0 916.26 236.86">
  <g id="Layer_1-2" data-name="Layer 1">
    <g>
      <path d="M1.13,87.35c8.92-.45,17.86-.6,26.79-.73,4.47-.06,8.94-.06,13.41,0,2.15.03,4.3.08,6.46.14,1.16.03,2.32.07,3.48.11.49.02,1,.07,1.49,0,.64-.09,1.15-.4,1.75-.63.7-.27,1.06-1.38.23-1.77-1.08-.52-1.76-.87-2.97-.94s-2.32-.08-3.48-.11c-2.15-.06-4.3-.1-6.46-.13-4.55-.06-9.11-.05-13.66.03-9.04.15-18.05.81-27.04,1.68-1.48.14-1.54,2.44,0,2.36h0Z" fill="#fff"/>
      <path d="M72.48,87.5c6.96-.4,13.95-.86,20.92-.95,3.42-.04,6.85.04,10.26.23s7.14.72,10.71.91c1.69.09,2.09-2.66.4-2.98-3.48-.66-7.09-.82-10.63-.99s-7.17-.21-10.75-.12-7.17.35-10.74.78-6.9,1.12-10.33,2.02c-.58.15-.48,1.11.15,1.08h0Z" fill="#fff"/>
      <path d="M130.92,87.21c7.39,1.05,14.84.9,22.29.96s15.09.38,22.6.03c2.11-.1,2.12-3.19,0-3.29-7.51-.35-15.08-.03-22.6.03s-14.9-.08-22.29.96c-.64.09-.64,1.21,0,1.3h0Z" fill="#fff"/>
      <path d="M258.33,89.81c7.19-.1,14.38-1.1,21.58-1.5s14.44-.62,21.66-.63c2.39,0,2.39-3.73,0-3.71-7.31.06-14.61.33-21.9.86s-14.61.91-21.65,2.58c-1.34.32-1.05,2.42.32,2.4h0Z" fill="#fff"/>
      <path d="M321.11,90.12c8.01.11,15.99.01,24-.19l11.88-.3,5.94-.15c2-.05,4.18.1,6.05-.67,1.21-.5,1.34-2.14,0-2.6-1.85-.64-3.87-.4-5.8-.34l-5.94.21-12.12.42c-8.02.28-16,.66-24,1.25-1.5.11-1.54,2.34,0,2.36h0Z" fill="#fff"/>
      <path d="M385.4,88.97c8.67,1.02,17.38.95,26.1,1.01l12.92.09,6.46.04c2.23.02,4.57.24,6.77-.12,2.01-.33,2.01-3.73,0-4.06-2.12-.35-4.38-.14-6.53-.12l-6.46.04-13.17.09c-8.72.06-17.43-.01-26.1,1.01-1.3.15-1.3,1.87,0,2.02h0Z" fill="#fff"/>
      <path d="M507.86,87.4c1.85,1.31,4.3,1.08,6.49,1.14,2.33.07,4.67.03,7,.04l13.75.09c9.23.06,18.52.44,27.75.08,2.82-.11,2.82-4.27,0-4.38-9.22-.36-18.52.02-27.75.08l-13.75.09c-2.33.01-4.67-.03-7,.04-2.18.07-4.65-.16-6.49,1.14-.62.44-.62,1.23,0,1.67h0Z" fill="#fff"/>
      <path d="M584.85,89.15c7.48,1.97,15.47,2.2,23.17,2.5,3.85.15,7.7.22,11.56.21,1.97,0,3.93-.03,5.9-.07,1.78-.04,4.42.15,5.73-1.21.66-.68.77-1.96,0-2.62-1.52-1.3-3.84-.94-5.73-.87s-3.77.13-5.66.16c-3.85.07-7.71.07-11.56-.01-7.67-.16-15.39-1.05-23.06-.74-1.48.06-1.87,2.25-.36,2.65h0Z" fill="#fff"/>
      <path d="M647.68,92.18c3.56.89,7.44.6,11.1.68l11.2.26c3.65.08,7.3.12,10.95.16l5.48.06c2.11.02,4.11.31,5.91-.97,1.19-.85,1.19-2.35,0-3.2-1.75-1.25-3.61-1-5.67-.98l-5.48.06c-3.73.04-7.47.08-11.2.16l-10.95.25c-3.73.09-7.71-.22-11.34.69-1.4.35-1.41,2.49,0,2.84h0Z" fill="#fff"/>
      <path d="M710.55,92.13c4.36.61,8.81.64,13.21.75s8.54.13,12.81.09c8.71-.09,17.39-.57,26.06-1.38,1.29-.12,2.4-1.02,2.4-2.4,0-1.2-1.1-2.53-2.4-2.4-8.58.85-17.2,1.46-25.81,1.86-4.27.2-8.54.33-12.81.39s-8.72-.15-13.05.12c-1.59.1-2.2,2.73-.4,2.98h0Z" fill="#fff"/>
      <path d="M777.98,92.28c2.31.13,4.61.38,6.92.38s4.62.02,6.93.05c4.7.06,9.4-.02,14.11,0s9.24.08,13.86.2,9.44.62,14.11.43c3.21-.13,3.07-4.55,0-4.89-4.71-.52-9.62-.26-14.35-.25s-9.24.07-13.86.18-9.25.24-13.86.61c-2.31.19-4.62.38-6.93.6s-4.76.71-7.13,1.12c-.93.16-.64,1.52.21,1.57h0Z" fill="#fff"/>
      <path d="M854.87,92.6c19.56-.02,39.11-.25,58.67-.59,3.64-.06,3.63-5.82,0-5.65-19.57.93-39.12,1.96-58.67,3.2-1.93.12-1.97,3.04,0,3.03h0Z" fill="#fff"/>
      <path d="M133.91,233.06c6.99.6,13.95,1.15,20.95,1.48s13.97.65,20.95.98c2.54.12,2.55-3.88,0-3.96-6.98-.23-13.97-.45-20.95-.68s-13.96-.23-20.95-.18c-1.54.01-1.49,2.23,0,2.36h0Z" fill="#fff"/>
      <path d="M195.13,234.56c3.23.82,6.45.85,9.76.95,3.65.1,7.31.11,10.96.12s7.28.02,10.91.04l5.11.02c1.45,0,3.67.25,4.74-.91.59-.64.59-1.57,0-2.2-1.08-1.16-3.29-.92-4.74-.91l-5.11.02c-3.64.01-7.28.02-10.91.04s-7.31.02-10.96.12c-3.31.09-6.53.13-9.76.95-.88.22-.88,1.56,0,1.79h0Z" fill="#fff"/>
      <path d="M304.37,233.26c6.74.33,13.5,0,20.25-.14s13.5-.49,20.25-.76c2.54-.1,2.55-4.09,0-3.96-6.83.34-13.67.61-20.5,1.08s-13.56.77-20.28,1.71c-1.22.17-.85,2.01.28,2.07h0Z" fill="#fff"/>
      <path d="M364.13,234.14c7.81,1.4,15.77,1.81,23.7,1.82s16.17-.39,24.17-1.44c1.13-.15,2.11-.86,2.11-2.11,0-1.05-.97-2.22-2.11-2.11-7.96.76-15.93,1.5-23.93,1.66s-15.69-.27-23.52-.96c-1.78-.16-2.2,2.83-.43,3.14h0Z" fill="#fff"/>
      <path d="M432.54,234.47c3.22.49,6.43.93,9.69,1.08s6.54.21,9.82.19,6.39-.06,9.55-.34c1.63-.14,3.26-.3,4.88-.49,1.77-.2,3.71-.19,5.27-1.12,1.64-.97,1.33-3.57-.53-4.08-1.63-.45-3.33-.01-4.98.17-1.54.17-3.09.33-4.64.46-3.19.28-6.36.62-9.55.82-6.36.4-12.76.46-19.13.57-1.5.03-1.97,2.48-.37,2.73h0Z" fill="#fff"/>
      <path d="M543.23,231.02c7.07-.04,14.14-.21,21.21-.16,3.46.02,6.92,0,10.37.07,1.81.03,3.62.08,5.43.14,1.64.06,3.89.56,5.43-.07,1.36-.55,1.99-2.56.44-3.39s-3.64-.59-5.38-.66-3.62-.12-5.43-.15c-3.62-.07-7.25-.1-10.87.05s-7.25.35-10.86.61c-3.58.26-7.1.82-10.64,1.39-1.24.2-.92,2.16.29,2.15h0Z" fill="#fff"/>
      <path d="M604.76,233.01c8.4.54,16.79.76,25.2.83l12.48.1,6.24.05c1.82.01,4.87.6,6.18-.93.63-.73.63-1.65,0-2.38-1.33-1.54-4.35-.94-6.18-.93l-5.99.05-12.72.1c-8.41.07-16.8.29-25.2.83-1.46.09-1.47,2.18,0,2.28h0Z" fill="#fff"/>
      <path d="M677.41,234.7c6.6.27,13.2.5,19.81.62l9.66.18c3.34.06,6.93.57,10.13-.52,1.68-.57,1.68-2.84,0-3.41-3.13-1.07-6.61-.58-9.88-.52l-9.9.18c-6.61.12-13.2.35-19.81.62-1.84.08-1.85,2.79,0,2.86h0Z" fill="#fff"/>
      <path d="M733.3,236.18c7.46.34,14.93.38,22.4.49,3.65.05,7.3.1,10.95.15,1.83.03,3.65.04,5.48.04,1.99,0,3.59-.14,5.05-1.62.3-.31.31-.82,0-1.13-1.39-1.41-2.88-1.62-4.8-1.62s-3.65,0-5.48.03l-11.2.16c-7.47.1-14.94.15-22.4.49-1.95.09-1.95,2.95,0,3.03h0Z" fill="#fff"/>
      <path d="M785.8,160.15c4.32,6.31,11.76-.51,16.07-3.11,2.78-1.68,5.93-2.95,9.15-3.46,2.74-.44,5.8-.19,8.25.95.61.29,1.2.63,1.76,1.01.12.08.71.53.34.23.28.23.55.47.8.72s.51.51.75.78c.09.1.57.69.28.31.41.53.77,1.11,1.09,1.69.18.32.33.64.49.97.25.52-.03-.17.15.37.21.63.42,1.26.56,1.91.03.14.17.9.13.61s.05.6.06.77c.01.3.02.59.01.89,0,.15-.01.3-.02.44,0,.06-.05.68-.01.3.03-.31-.08.45-.11.58-.07.33-.16.66-.26.98-.06.19-.33.8-.1.31-.14.31-.3.61-.48.9-.07.12-.47.72-.33.53.2-.27-.1.12-.12.14-.14.15-.27.3-.41.45-.53.53-.98.87-1.69,1.27-1.33.74-2.62.92-4.24.87-2.11-.07-4.16-.31-6.25.15-4.07.88-6.99,4.57-7.98,8.47-.58,2.32-.5,4.67-.14,7.02s.78,5.43,2.71,6.98c1.61,1.29,3.9.9,4.58-1.21.41-1.3.3-2.33-.08-3.63-.28-.98-.54-1.96-.73-2.96-.17-.86-.24-1.72-.23-2.59,0-.28.04-1.09.04-1.08,0-.01.17-.81.26-1.13.34-1.18.83-2.14,1.87-2.99.3-.24.08-.04.02,0,.14-.09.29-.18.44-.26.3-.17.08-.08,0-.04.23-.1.51-.18.76-.24.81-.18,1.64-.14,2.47-.1,2.12.1,4.17.24,6.26-.25,1.96-.46,3.76-1.41,5.32-2.65,2.42-1.91,4.15-4.73,4.65-7.79.98-5.98-1.46-12.41-6.22-16.21-5.63-4.48-13.63-4.53-20.11-1.95-3.85,1.54-6.82,3.98-9.92,6.65-1.36,1.17-2.85,2.36-4.51,3.06-1.53.65-2.81,1.29-4.4.42-.56-.3-1.32.34-.92.92h0Z" fill="#fff"/>
      <path d="M812.01,225.62c.07-.44.05-.85-.17-1.26-.08-.15-.19-.3-.31-.43-.03-.03-.06-.06-.09-.09.25.29.09.07-.18-.27l-.4-.31c-.23-.14-.47-.22-.74-.24-.46-.06-.84.03-1.26.24-.84.4-1.31,1.3-1.37,2.2-.05.77.32,1.59.88,2.11.7.65,1.69.96,2.63.7.57-.15,1.11-.54,1.5-.98,1.22-1.35,1.57-3.27,1.07-5-.25-.86-.69-1.64-1.29-2.3s-1.44-1.15-2.28-1.32c-1.14-.23-2.21-.08-3.24.44-.84.42-1.51,1.14-2.03,1.91-1.21,1.8-1.39,4.67.43,6.14.41.33.87.62,1.43.59.46-.02.86-.15,1.23-.43.8-.62,1.02-1.72.52-2.61-.05-.09-.1-.19-.14-.28l.21.5c-.14-.34-.24-.74-.29-1.11l.08.58c-.03-.27-.03-.53,0-.8l-.08.58c.04-.31.13-.62.24-.91l-.22.52c.13-.31.3-.61.51-.88l-.34.43c.18-.23.38-.44.62-.62l-.43.33c.2-.15.4-.27.63-.37l-.51.21c.21-.09.42-.15.64-.18l-.56.08c.21-.03.42-.03.63,0l-.56-.08c.21.03.42.08.62.16l-.5-.21c.21.09.4.2.58.34l-.42-.33c.19.15.37.33.52.52l-.33-.42c.19.25.34.52.46.8l-.21-.49c.13.31.21.63.26.96l-.07-.55c.04.31.04.62,0,.93l.07-.54c-.04.27-.1.52-.21.77l.2-.49c-.09.21-.2.4-.34.58l.32-.41c-.13.17-.28.31-.45.44l.41-.31c-.05.04-.1.07-.16.1l.48-.2s-.08.03-.13.04l.53-.07c-.07,0-.13,0-.19,0l.53.07c-.07-.01-.13-.03-.19-.05l.48.2c-.08-.04-.16-.08-.23-.14l.4.31c-.05-.05-.1-.09-.14-.14l.31.4c-.05-.07-.1-.15-.13-.23l.2.48c-.02-.06-.04-.12-.04-.19l.07.53s0-.09,0-.13l-.07.53c.01-.07.03-.12.05-.19l-.2.47s.04-.07.06-.1l-.31.4s.07-.08.12-.12l-.4.31s.09-.06.15-.09c.57-.29,1.04-1.06.98-1.71v-.02c-.03.17-.05.34-.07.51l.03-.16-.71.92s-.41.13-.2.09c.13-.02-.41.02-.2.02.16,0-.2-.03-.19-.03.17.04-.26-.14-.11-.04.55.35,1.5.04,1.61-.65h0Z" fill="#fff"/>
      <polyline points="395.18 71.25 395.18 4.49 426.24 14.74 426.24 71" fill="none" stroke="#f5c473" stroke-linejoin="round" stroke-width="8.99"/>
    </g>
  </g>
</svg>